<svg version="1.1" id="Layer_1" xmlns="http://www.w3.org/2000/svg" xmlns:xlink="http://www.w3.org/1999/xlink" x="0px" y="0px"
	 width="100%" viewBox="0 0 1061 649" enable-background="new 0 0 1061 649" xml:space="preserve">
<path fill="#ffffff00" opacity="1.000000" stroke="none" 
	d="
M290.000000,1.000002 
	C547.301819,1.000000 804.603577,1.000000 1061.952637,1.000000 
	C1061.952637,217.275253 1061.952637,433.550537 1061.952637,649.912903 
	C708.434814,649.912903 354.869537,649.912903 1.152155,649.912903 
	C1.152155,433.666748 1.152155,217.333389 1.152155,1.000000 
	C96.437569,1.000000 191.759079,1.000000 287.323578,1.284447 
	C269.534607,7.620490 253.453201,17.339289 238.218063,28.448086 
	C228.841568,35.285000 220.014984,42.876060 210.632111,50.268661 
	C210.183853,50.940910 210.044998,51.473011 209.952545,52.000671 
	C209.998947,51.996239 209.989059,51.903542 209.690643,51.634377 
	C204.327866,55.919758 199.263519,60.474304 193.906006,65.076073 
	C193.440704,65.454796 193.268570,65.786293 193.057709,66.060791 
	C193.018982,66.003792 193.120041,66.097588 192.840240,66.131592 
	C192.412018,66.486893 192.263611,66.808197 192.063019,67.066040 
	C192.010849,67.002579 192.131042,67.114815 191.846008,67.141624 
	C191.419876,67.492188 191.278763,67.815933 191.092957,68.061676 
	C191.048294,67.983665 191.155975,68.129013 190.820221,68.150757 
	C190.181442,68.749542 189.878418,69.326569 189.459595,70.078072 
	C189.071732,70.555267 188.799667,70.857994 188.160812,71.062981 
	C186.359955,72.048531 184.792252,72.993919 183.511353,74.235252 
	C149.953293,106.756577 119.679176,142.092926 93.090820,180.527908 
	C62.070621,225.369400 36.122726,272.784149 20.724192,325.440948 
	C10.490566,360.435822 5.635096,395.993805 11.191865,432.325104 
	C18.255106,478.506104 40.957409,515.825073 77.145668,544.988892 
	C94.625710,559.075867 113.168747,571.647583 133.886383,581.367310 
	C136.060608,582.473145 138.012985,583.297058 139.981262,584.083984 
	C139.997177,584.047058 139.918564,584.063782 140.116486,584.349731 
	C176.512222,601.579041 214.738358,611.743958 254.345154,618.775879 
	C332.225555,632.806824 410.434723,635.039612 489.775787,633.856689 
	C487.593994,633.023560 486.288940,632.525269 485.446777,631.988281 
	C524.037964,633.790283 562.172913,635.043274 600.342590,633.765503 
	C561.516052,630.199524 522.932617,625.233887 484.672455,617.973633 
	C420.363922,605.770447 357.367950,589.157837 297.758240,560.953552 
	C297.125031,560.433350 296.536041,560.240967 295.955658,560.050842 
	C295.964264,560.053040 295.942078,560.078857 295.881042,559.739990 
	C282.022644,548.705688 267.745789,538.567749 254.529175,527.197327 
	C228.125961,504.482178 206.926422,477.466248 191.312286,446.247192 
	C178.942398,421.514740 170.738953,395.392944 167.296234,367.965546 
	C165.173477,351.053925 162.466309,334.041168 165.942200,316.538452 
	C173.503723,282.466766 184.764008,250.050934 198.648163,218.496231 
	C221.018311,167.655243 249.051346,120.001488 279.734985,73.824631 
	C280.705505,72.364075 281.278351,70.639259 282.237854,69.050270 
	C282.447601,68.845612 282.456055,68.628319 282.464508,68.411026 
	C282.305725,68.602554 282.146973,68.794090 281.639526,69.010277 
	C279.364777,70.317154 277.267609,71.403366 275.539185,72.912033 
	C259.080444,87.278236 242.693695,101.726891 226.251678,116.112328 
	C224.965729,117.237450 223.419281,118.064835 221.987717,118.663147 
	C222.521729,117.083138 223.018936,115.849258 223.608353,114.661125 
	C239.681686,82.260948 257.952606,51.128048 277.650635,20.812706 
	C281.889984,14.288313 285.889832,7.608319 290.000000,1.000002 
M263.456665,205.971161 
	C241.157516,271.595245 218.858368,337.219360 196.333313,403.508270 
	C213.422043,403.508270 229.703613,403.577057 245.981262,403.355621 
	C247.082352,403.340668 248.680496,401.318634 249.153961,399.926208 
	C252.399048,390.382904 255.405533,380.758453 258.492767,371.148010 
	C284.088379,371.148010 309.386261,371.148010 334.766876,371.148010 
	C338.247345,381.976776 341.693390,392.698547 345.077637,403.227966 
	C362.379028,403.227966 379.305786,403.227966 396.655731,403.227966 
	C396.345764,401.989502 396.181580,401.051880 395.878265,400.161682 
	C373.285034,333.852722 350.649536,267.558105 328.170074,201.210617 
	C327.048920,197.901566 325.594849,197.038376 322.259338,197.078384 
	C306.432770,197.268219 290.602661,197.163513 274.773834,197.164169 
	C266.462372,197.164520 266.462372,197.164948 263.456665,205.971161 
M738.519714,347.515137 
	C768.946838,347.515137 799.373901,347.515137 830.165222,347.515137 
	C830.588867,344.474274 831.020935,341.873810 831.305298,339.257294 
	C836.933105,287.468170 798.442932,244.878082 744.205017,252.895477 
	C714.325439,257.312256 692.931213,273.407684 683.303894,302.171478 
	C673.264404,332.166504 677.288574,360.653961 699.824097,384.216400 
	C726.163818,411.756439 777.551147,415.785217 808.352112,393.305664 
	C814.376892,388.908569 819.398071,383.136322 825.433289,377.481964 
	C812.505981,370.060608 800.890198,363.392212 789.364075,356.775269 
	C768.410950,376.503601 729.945129,367.685669 726.537720,347.515106 
	C730.232971,347.515106 733.881775,347.515106 738.519714,347.515137 
M437.974731,376.559296 
	C440.324707,382.233734 442.726196,387.887817 444.985962,393.597961 
	C445.505585,394.910919 446.130920,396.634064 445.702728,397.799194 
	C441.987274,407.910156 436.097595,416.146698 424.991882,418.923309 
	C420.045258,420.160034 414.901825,420.609528 409.659485,421.446381 
	C409.659485,434.776428 409.659485,448.234131 409.659485,461.999512 
	C414.906006,461.999512 420.045502,462.366302 425.116425,461.932190 
	C441.718445,460.510925 456.346161,454.529358 468.306519,442.575958 
	C479.364838,431.524139 486.668549,418.157379 491.885376,403.670166 
	C503.748352,370.726593 515.276367,337.662415 526.935425,304.645416 
	C532.617310,288.555145 538.287720,272.460876 544.024292,256.195465 
	C528.035889,256.195465 512.427307,256.195465 496.620148,256.195465 
	C487.564209,285.615753 478.545929,314.913696 469.095734,345.614746 
	C457.919037,314.834930 447.287323,285.555969 436.619751,256.178162 
	C420.447144,256.178162 404.353333,256.178162 387.687836,256.178162 
	C404.459930,296.302917 421.083069,336.071442 437.974731,376.559296 
M579.682678,256.084991 
	C576.094788,257.813324 572.321289,259.240997 568.951172,261.321960 
	C554.217529,270.419464 547.403931,283.995544 547.548096,301.065491 
	C547.694092,318.356445 556.539490,330.218658 571.714539,337.589661 
	C576.920715,340.118500 582.422302,342.094971 587.905884,343.984222 
	C596.992554,347.114838 606.277649,349.700562 615.238098,353.143250 
	C617.319580,353.942932 619.828857,357.408539 619.628357,359.393616 
	C619.388062,361.772156 616.913574,364.811371 614.609558,365.946259 
	C602.661682,371.831482 586.779053,366.069794 580.857117,354.150757 
	C580.294922,353.019165 579.705505,351.901001 578.989990,350.506165 
	C566.026062,357.898438 553.399719,365.098206 540.734070,372.320404 
	C546.376038,383.867126 554.047791,393.093445 565.150574,398.511688 
	C590.609680,410.935883 616.611084,411.241364 642.047607,398.819458 
	C658.577637,390.747070 665.780945,376.282043 665.528748,357.986328 
	C665.284119,340.238403 657.106079,327.361023 641.203796,319.938629 
	C633.132141,316.171204 624.380249,313.844849 615.898132,310.978851 
	C610.088623,309.015869 604.000183,307.710571 598.469971,305.168304 
	C596.146240,304.100037 593.441223,300.460663 593.644287,298.240234 
	C593.852844,295.959290 597.038757,292.920532 599.550415,292.069946 
	C607.669495,289.320526 614.953979,291.530762 620.790710,297.889709 
	C622.450867,299.698395 623.802246,301.790558 625.385315,303.871124 
	C638.007080,297.059021 650.459045,290.338531 662.926453,283.609680 
	C646.596558,256.049225 612.727417,244.828735 579.682678,256.084991 
M856.480408,248.499725 
	C856.480408,300.056580 856.480408,351.613434 856.480408,403.181946 
	C871.711121,403.181946 886.260498,403.181946 900.621582,403.181946 
	C900.621582,331.331390 900.621582,259.819214 900.621582,188.405182 
	C885.811218,188.405182 871.386780,188.405182 856.480408,188.405182 
	C856.480408,208.265335 856.480408,227.882523 856.480408,248.499725 
M956.010681,505.496796 
	C956.010681,479.096680 956.010681,452.696564 956.010681,426.440796 
	C952.435059,426.440796 949.667969,426.440796 946.296265,426.440796 
	C946.296265,432.720520 946.296265,438.731842 946.296265,445.577423 
	C925.657715,416.573059 892.176697,421.190002 875.331726,436.285004 
	C856.294739,453.344391 854.243164,484.419586 871.251587,503.911865 
	C881.429993,515.576599 894.479187,520.767944 909.882629,520.109741 
	C925.377075,519.447693 937.094238,511.991547 946.046753,498.849213 
	C948.530762,524.657104 942.516846,538.601624 926.681458,544.903687 
	C907.830200,552.406006 887.924927,546.840088 874.599365,530.179626 
	C872.088135,531.602722 869.541809,533.045654 866.827942,534.583496 
	C870.259583,541.981995 875.661865,546.945618 882.393799,550.573792 
	C892.058411,555.782532 902.534729,557.212891 913.323120,556.827026 
	C936.215515,556.008423 952.589661,541.784790 955.571045,519.962036 
	C956.175781,515.535522 955.887329,510.986938 956.010681,505.496796 
M543.543640,510.359436 
	C519.580872,514.635498 497.497284,498.996582 497.290436,477.056763 
	C524.688599,477.056763 552.087341,477.056763 579.387634,477.056763 
	C583.074280,454.349823 567.610779,431.120087 545.590027,425.599304 
	C521.768799,419.627136 497.629333,432.451782 489.827484,455.224457 
	C481.250641,480.259430 491.750000,506.091675 514.575378,516.113464 
	C536.782837,525.863892 565.017151,518.099854 575.173401,499.209900 
	C572.669556,497.692902 570.151978,496.167542 567.347961,494.468689 
	C561.798889,503.082184 554.169739,508.266357 543.543640,510.359436 
M700.425049,457.006989 
	C697.361450,467.519745 697.353699,478.019501 700.728394,488.453613 
	C708.590454,512.762451 734.708679,525.687012 760.885132,518.323425 
	C771.808472,515.250610 780.570679,509.393036 786.671570,499.269653 
	C783.726746,497.533386 781.214783,496.052307 778.786133,494.620331 
	C765.771667,510.404175 748.924866,515.128113 731.335999,508.260529 
	C717.964905,503.039825 708.002075,489.435577 708.772827,477.090942 
	C736.012024,477.090942 763.273865,477.090942 790.466675,477.090942 
	C794.753174,455.494812 779.276184,431.519897 757.659241,425.836823 
	C732.957703,419.342804 708.566528,432.382507 700.425049,457.006989 
M1029.320923,506.894135 
	C1039.920410,480.143921 1050.520020,453.393707 1061.208374,426.419403 
	C1051.173950,425.772064 1051.201660,425.782898 1047.822388,434.445343 
	C1040.520752,453.161591 1033.196289,471.868958 1025.862183,490.572479 
	C1023.801819,495.826660 1021.675171,501.054840 1019.244873,507.130157 
	C1018.128418,504.851715 1017.454224,503.557861 1016.850525,502.231873 
	C1006.323547,479.109314 995.815125,455.978271 985.279419,432.859680 
	C981.772644,425.164795 981.165222,424.902802 972.487122,426.909912 
	C973.115295,428.462219 973.678894,430.008545 974.355286,431.503876 
	C987.085388,459.648132 999.851440,487.776154 1012.512573,515.951355 
	C1013.264038,517.623596 1013.973999,519.966858 1013.384766,521.486755 
	C1008.313416,534.568909 1001.346130,545.736450 985.345337,546.342346 
	C985.345337,549.304749 985.345337,552.038452 985.345337,555.173462 
	C988.027588,554.906982 990.364807,554.894836 992.602234,554.416443 
	C1006.434082,551.458557 1014.531921,541.894226 1020.091919,529.789490 
	C1023.414917,522.554688 1026.093140,515.023621 1029.320923,506.894135 
M610.533936,428.062988 
	C607.620056,427.225372 604.706238,426.387756 601.395874,425.436188 
	C601.395874,457.162109 601.395874,487.421631 601.395874,517.806641 
	C604.511353,517.806641 607.372070,517.806641 610.562317,517.806641 
	C610.562317,501.955750 610.074219,486.458344 610.773132,471.014679 
	C611.110779,463.553070 612.516357,455.682281 615.491638,448.897034 
	C620.933777,436.485870 635.983887,430.804718 650.386536,434.252716 
	C662.445068,437.139526 669.127686,446.768097 669.143677,461.354095 
	C669.162415,478.515869 669.147827,495.677734 669.147644,512.839539 
	C669.147644,514.460083 669.147705,516.080566 669.147705,517.838989 
	C672.701233,517.838989 675.734497,517.838989 678.847168,517.838989 
	C678.847168,497.353485 679.076050,477.210510 678.735291,457.077179 
	C678.597595,448.941406 675.719543,441.422516 670.101257,435.223206 
	C655.917297,419.572418 627.372192,420.683716 614.300842,437.390381 
	C613.346069,438.610657 612.385437,439.826385 610.557129,442.150787 
	C610.557129,436.823456 610.557129,432.889160 610.533936,428.062988 
M812.402039,497.499573 
	C812.402039,504.270142 812.402039,511.040680 812.402039,517.890747 
	C815.869507,517.890747 818.760559,517.890747 821.876831,517.890747 
	C821.876831,515.722534 821.872437,513.898682 821.877441,512.074890 
	C821.921875,495.918732 821.619873,479.752014 822.109558,463.609314 
	C822.620544,446.764374 832.904297,436.176453 849.578369,434.222412 
	C850.520386,434.112000 851.444641,433.849945 852.226318,433.689453 
	C852.226318,430.661591 852.226318,427.926880 852.226318,425.001862 
	C838.933960,424.994690 829.005249,430.348724 821.616333,441.231628 
	C821.616333,436.308777 821.616333,431.385956 821.616333,426.389038 
	C818.424255,426.389038 815.671692,426.389038 812.402283,426.389038 
	C812.402283,449.934204 812.402283,473.216949 812.402039,497.499573 
z"/>
<path fill="#77C6E5" opacity="1.000000" stroke="none" 
	d="
M289.666687,1.000002 
	C285.889832,7.608319 281.889984,14.288313 277.650635,20.812706 
	C257.952606,51.128048 239.681686,82.260948 223.608353,114.661125 
	C223.018936,115.849258 222.521729,117.083138 221.987701,118.639954 
	C221.993866,118.984222 222.041138,118.980225 221.729156,119.146317 
	C221.266876,120.000084 221.116562,120.687752 220.791199,121.648361 
	C217.410370,128.277908 214.006958,134.543549 211.032013,141.006409 
	C195.461761,174.831589 182.414963,209.603058 174.654282,246.071167 
	C170.536560,265.420776 168.030228,285.123016 165.149658,304.718018 
	C164.569229,308.666290 165.581299,312.848663 165.859161,316.923126 
	C162.466309,334.041168 165.173477,351.053925 167.296234,367.965546 
	C170.738953,395.392944 178.942398,421.514740 191.312286,446.247192 
	C206.926422,477.466248 228.125961,504.482178 254.529175,527.197327 
	C267.745789,538.567749 282.022644,548.705688 295.506287,559.778198 
	C289.324371,557.401733 283.370361,554.815918 277.601715,551.867371 
	C237.887512,531.568054 201.239426,507.074890 171.050995,473.761047 
	C125.568237,423.569427 105.785591,364.678375 110.719597,297.202728 
	C112.807190,268.653595 118.834854,240.980728 127.684471,213.866196 
	C141.911499,170.275787 162.276123,129.556961 185.995987,90.447784 
	C193.843597,77.508675 201.983047,64.746574 209.989075,51.903542 
	C209.989059,51.903542 209.998947,51.996239 210.213760,51.875374 
	C210.599548,51.212513 210.770523,50.670509 210.941498,50.128510 
	C220.014984,42.876060 228.841568,35.285000 238.218063,28.448086 
	C253.453201,17.339289 269.534607,7.620490 287.783264,1.284447 
	C288.444458,1.000000 288.888885,1.000000 289.666687,1.000002 
z"/>
<path fill="#77C6E5" opacity="1.000000" stroke="none" 
	d="
M484.983887,632.026855 
	C486.288940,632.525269 487.593994,633.023560 489.775787,633.856689 
	C410.434723,635.039612 332.225555,632.806824 254.254028,618.441406 
	C251.603867,617.305847 249.483475,616.465088 247.283371,616.008179 
	C216.257614,609.564941 185.702576,601.526245 156.231934,589.685730 
	C150.901672,587.544128 145.361725,585.924377 139.918564,584.063782 
	C139.918564,584.063782 139.997177,584.047058 139.849304,583.745850 
	C137.689133,582.658264 135.676834,581.871887 133.664536,581.085449 
	C113.168747,571.647583 94.625710,559.075867 77.145668,544.988892 
	C40.957409,515.825073 18.255106,478.506104 11.191865,432.325104 
	C5.635096,395.993805 10.490566,360.435822 20.724192,325.440948 
	C36.122726,272.784149 62.070621,225.369400 93.090820,180.527908 
	C119.679176,142.092926 149.953293,106.756577 183.511353,74.235252 
	C184.792252,72.993919 186.359955,72.048531 188.118530,71.432175 
	C187.936310,72.753685 187.516464,73.676025 186.910431,74.453186 
	C140.489029,133.981995 106.282379,199.730225 86.755951,272.784058 
	C75.878059,313.481323 71.518074,354.777374 77.902122,396.805695 
	C84.602478,440.916351 103.048332,479.329437 133.592712,511.807739 
	C163.340454,543.438965 199.705536,565.275269 239.393051,581.929016 
	C278.977051,598.539124 320.207367,609.476562 362.378510,617.182678 
	C395.944855,623.316284 429.721832,627.622375 463.742737,630.123840 
	C470.831451,630.645142 477.903931,631.386780 484.983887,632.026855 
z"/>
<path fill="#2E5B7A" opacity="1.000000" stroke="none" 
	d="
M485.446777,631.988281 
	C477.903931,631.386780 470.831451,630.645142 463.742737,630.123840 
	C429.721832,627.622375 395.944855,623.316284 362.378510,617.182678 
	C320.207367,609.476562 278.977051,598.539124 239.393051,581.929016 
	C199.705536,565.275269 163.340454,543.438965 133.592712,511.807739 
	C103.048332,479.329437 84.602478,440.916351 77.902122,396.805695 
	C71.518074,354.777374 75.878059,313.481323 86.755951,272.784058 
	C106.282379,199.730225 140.489029,133.981995 186.910431,74.453186 
	C187.516464,73.676025 187.936310,72.753685 188.485352,71.529922 
	C188.799667,70.857994 189.071732,70.555267 189.814758,70.059662 
	C190.575836,69.287529 190.865906,68.708275 191.155975,68.129013 
	C191.155975,68.129013 191.048294,67.983665 191.372787,68.037521 
	C191.841873,67.765854 191.986450,67.440338 192.131042,67.114815 
	C192.131042,67.114815 192.010849,67.002579 192.338074,67.026985 
	C192.816879,66.733452 192.968460,66.415520 193.120041,66.097588 
	C193.120041,66.097588 193.018982,66.003792 193.337891,66.005470 
	C193.837601,65.681046 194.018387,65.354942 194.199173,65.028839 
	C199.263519,60.474304 204.327866,55.919758 209.690643,51.634380 
	C201.983047,64.746574 193.843597,77.508675 185.995987,90.447784 
	C162.276123,129.556961 141.911499,170.275787 127.684471,213.866196 
	C118.834854,240.980728 112.807190,268.653595 110.719597,297.202728 
	C105.785591,364.678375 125.568237,423.569427 171.050995,473.761047 
	C201.239426,507.074890 237.887512,531.568054 277.601715,551.867371 
	C283.370361,554.815918 289.324371,557.401733 295.567352,560.117126 
	C295.942078,560.078857 295.964264,560.053040 296.037170,560.344727 
	C296.674225,560.851379 297.238342,561.066406 297.802460,561.281372 
	C357.367950,589.157837 420.363922,605.770447 484.672455,617.973633 
	C522.932617,625.233887 561.516052,630.199524 600.342590,633.765503 
	C562.172913,635.043274 524.037964,633.790283 485.446777,631.988281 
z"/>
<path fill="#020202" opacity="1.000000" stroke="none" 
	d="
M263.615631,205.606415 
	C266.462372,197.164948 266.462372,197.164520 274.773834,197.164169 
	C290.602661,197.163513 306.432770,197.268219 322.259338,197.078384 
	C325.594849,197.038376 327.048920,197.901566 328.170074,201.210617 
	C350.649536,267.558105 373.285034,333.852722 395.878265,400.161682 
	C396.181580,401.051880 396.345764,401.989502 396.655731,403.227966 
	C379.305786,403.227966 362.379028,403.227966 345.077637,403.227966 
	C341.693390,392.698547 338.247345,381.976776 334.766876,371.148010 
	C309.386261,371.148010 284.088379,371.148010 258.492767,371.148010 
	C255.405533,380.758453 252.399048,390.382904 249.153961,399.926208 
	C248.680496,401.318634 247.082352,403.340668 245.981262,403.355621 
	C229.703613,403.577057 213.422043,403.508270 196.333313,403.508270 
	C218.858368,337.219360 241.157516,271.595245 263.615631,205.606415 
M317.029907,315.483337 
	C310.326111,294.531708 303.622314,273.580048 296.615814,251.682404 
	C288.448792,277.305359 280.617676,301.874420 272.754761,326.543335 
	C288.883026,326.543335 304.416809,326.543335 320.473907,326.543335 
	C319.292542,322.845459 318.241882,319.556854 317.029907,315.483337 
z"/>
<path fill="#030303" opacity="1.000000" stroke="none" 
	d="
M738.025146,347.515137 
	C733.881775,347.515106 730.232971,347.515106 726.537720,347.515106 
	C729.945129,367.685669 768.410950,376.503601 789.364075,356.775269 
	C800.890198,363.392212 812.505981,370.060608 825.433289,377.481964 
	C819.398071,383.136322 814.376892,388.908569 808.352112,393.305664 
	C777.551147,415.785217 726.163818,411.756439 699.824097,384.216400 
	C677.288574,360.653961 673.264404,332.166504 683.303894,302.171478 
	C692.931213,273.407684 714.325439,257.312256 744.205017,252.895477 
	C798.442932,244.878082 836.933105,287.468170 831.305298,339.257294 
	C831.020935,341.873810 830.588867,344.474274 830.165222,347.515137 
	C799.373901,347.515137 768.946838,347.515137 738.025146,347.515137 
M733.585083,314.167145 
	C751.369873,314.167145 769.154602,314.167145 786.988464,314.167145 
	C785.179382,301.206421 772.930237,291.783081 757.523315,291.169342 
	C741.439575,290.528656 728.792908,299.375885 725.200562,314.167145 
	C727.743958,314.167145 730.181946,314.167145 733.585083,314.167145 
z"/>
<path fill="#020202" opacity="1.000000" stroke="none" 
	d="
M437.840454,376.199615 
	C421.083069,336.071442 404.459930,296.302917 387.687836,256.178162 
	C404.353333,256.178162 420.447144,256.178162 436.619751,256.178162 
	C447.287323,285.555969 457.919037,314.834930 469.095734,345.614746 
	C478.545929,314.913696 487.564209,285.615753 496.620148,256.195465 
	C512.427307,256.195465 528.035889,256.195465 544.024292,256.195465 
	C538.287720,272.460876 532.617310,288.555145 526.935425,304.645416 
	C515.276367,337.662415 503.748352,370.726593 491.885376,403.670166 
	C486.668549,418.157379 479.364838,431.524139 468.306519,442.575958 
	C456.346161,454.529358 441.718445,460.510925 425.116425,461.932190 
	C420.045502,462.366302 414.906006,461.999512 409.659485,461.999512 
	C409.659485,448.234131 409.659485,434.776428 409.659485,421.446381 
	C414.901825,420.609528 420.045258,420.160034 424.991882,418.923309 
	C436.097595,416.146698 441.987274,407.910156 445.702728,397.799194 
	C446.130920,396.634064 445.505585,394.910919 444.985962,393.597961 
	C442.726196,387.887817 440.324707,382.233734 437.840454,376.199615 
z"/>
<path fill="#020202" opacity="1.000000" stroke="none" 
	d="
M580.070068,256.004150 
	C612.727417,244.828735 646.596558,256.049225 662.926453,283.609680 
	C650.459045,290.338531 638.007080,297.059021 625.385315,303.871124 
	C623.802246,301.790558 622.450867,299.698395 620.790710,297.889709 
	C614.953979,291.530762 607.669495,289.320526 599.550415,292.069946 
	C597.038757,292.920532 593.852844,295.959290 593.644287,298.240234 
	C593.441223,300.460663 596.146240,304.100037 598.469971,305.168304 
	C604.000183,307.710571 610.088623,309.015869 615.898132,310.978851 
	C624.380249,313.844849 633.132141,316.171204 641.203796,319.938629 
	C657.106079,327.361023 665.284119,340.238403 665.528748,357.986328 
	C665.780945,376.282043 658.577637,390.747070 642.047607,398.819458 
	C616.611084,411.241364 590.609680,410.935883 565.150574,398.511688 
	C554.047791,393.093445 546.376038,383.867126 540.734070,372.320404 
	C553.399719,365.098206 566.026062,357.898438 578.989990,350.506165 
	C579.705505,351.901001 580.294922,353.019165 580.857117,354.150757 
	C586.779053,366.069794 602.661682,371.831482 614.609558,365.946259 
	C616.913574,364.811371 619.388062,361.772156 619.628357,359.393616 
	C619.828857,357.408539 617.319580,353.942932 615.238098,353.143250 
	C606.277649,349.700562 596.992554,347.114838 587.905884,343.984222 
	C582.422302,342.094971 576.920715,340.118500 571.714539,337.589661 
	C556.539490,330.218658 547.694092,318.356445 547.548096,301.065491 
	C547.403931,283.995544 554.217529,270.419464 568.951172,261.321960 
	C572.321289,259.240997 576.094788,257.813324 580.070068,256.004150 
z"/>
<path fill="#040404" opacity="1.000000" stroke="none" 
	d="
M856.480408,247.999725 
	C856.480408,227.882523 856.480408,208.265335 856.480408,188.405182 
	C871.386780,188.405182 885.811218,188.405182 900.621582,188.405182 
	C900.621582,259.819214 900.621582,331.331390 900.621582,403.181946 
	C886.260498,403.181946 871.711121,403.181946 856.480408,403.181946 
	C856.480408,351.613434 856.480408,300.056580 856.480408,247.999725 
z"/>
<path fill="#5EA9DD" opacity="1.000000" stroke="none" 
	d="
M165.942215,316.538452 
	C165.581299,312.848663 164.569229,308.666290 165.149658,304.718018 
	C168.030228,285.123016 170.536560,265.420776 174.654282,246.071167 
	C182.414963,209.603058 195.461761,174.831589 211.032013,141.006409 
	C214.006958,134.543549 217.410370,128.277908 221.043457,121.394402 
	C221.660904,120.238411 221.851028,119.609322 222.041138,118.980225 
	C222.041138,118.980225 221.993866,118.984222 221.993881,119.007416 
	C223.419281,118.064835 224.965729,117.237450 226.251678,116.112328 
	C242.693695,101.726891 259.080444,87.278236 275.539185,72.912033 
	C277.267609,71.403366 279.364777,70.317154 281.650940,69.023148 
	C282.011017,69.011353 282.036621,69.037651 282.036621,69.037643 
	C281.278351,70.639259 280.705505,72.364075 279.734985,73.824631 
	C249.051346,120.001488 221.018311,167.655243 198.648163,218.496231 
	C184.764008,250.050934 173.503723,282.466766 165.942215,316.538452 
z"/>
<path fill="#494949" opacity="1.000000" stroke="none" 
	d="
M956.010681,505.995728 
	C955.887329,510.986938 956.175781,515.535522 955.571045,519.962036 
	C952.589661,541.784790 936.215515,556.008423 913.323120,556.827026 
	C902.534729,557.212891 892.058411,555.782532 882.393799,550.573792 
	C875.661865,546.945618 870.259583,541.981995 866.827942,534.583496 
	C869.541809,533.045654 872.088135,531.602722 874.599365,530.179626 
	C887.924927,546.840088 907.830200,552.406006 926.681458,544.903687 
	C942.516846,538.601624 948.530762,524.657104 946.046753,498.849213 
	C937.094238,511.991547 925.377075,519.447693 909.882629,520.109741 
	C894.479187,520.767944 881.429993,515.576599 871.251587,503.911865 
	C854.243164,484.419586 856.294739,453.344391 875.331726,436.285004 
	C892.176697,421.190002 925.657715,416.573059 946.296265,445.577423 
	C946.296265,438.731842 946.296265,432.720520 946.296265,426.440796 
	C949.667969,426.440796 952.435059,426.440796 956.010681,426.440796 
	C956.010681,452.696564 956.010681,479.096680 956.010681,505.995728 
M940.195496,493.604584 
	C949.271729,478.885468 948.456848,461.021210 938.109253,447.866852 
	C928.369324,435.484955 911.273804,430.366791 895.866089,435.219849 
	C880.511597,440.056183 869.849243,454.207855 869.093933,470.753265 
	C868.330566,487.477020 878.738953,503.129181 894.416992,508.834259 
	C911.087769,514.900574 928.639343,509.266357 940.195496,493.604584 
z"/>
<path fill="#484848" opacity="1.000000" stroke="none" 
	d="
M543.961548,510.269897 
	C554.169739,508.266357 561.798889,503.082184 567.347961,494.468689 
	C570.151978,496.167542 572.669556,497.692902 575.173401,499.209900 
	C565.017151,518.099854 536.782837,525.863892 514.575378,516.113464 
	C491.750000,506.091675 481.250641,480.259430 489.827484,455.224457 
	C497.629333,432.451782 521.768799,419.627136 545.590027,425.599304 
	C567.610779,431.120087 583.074280,454.349823 579.387634,477.056763 
	C552.087341,477.056763 524.688599,477.056763 497.290436,477.056763 
	C497.497284,498.996582 519.580872,514.635498 543.961548,510.269897 
M542.500000,467.994019 
	C551.620300,467.994019 560.740662,467.994019 569.870239,467.994019 
	C569.136230,448.183960 553.506653,433.205597 534.189880,433.385834 
	C513.940735,433.574799 497.484528,448.784241 497.164093,467.994019 
	C511.944794,467.994019 526.722412,467.994019 542.500000,467.994019 
z"/>
<path fill="#484848" opacity="1.000000" stroke="none" 
	d="
M700.582520,456.636658 
	C708.566528,432.382507 732.957703,419.342804 757.659241,425.836823 
	C779.276184,431.519897 794.753174,455.494812 790.466675,477.090942 
	C763.273865,477.090942 736.012024,477.090942 708.772827,477.090942 
	C708.002075,489.435577 717.964905,503.039825 731.335999,508.260529 
	C748.924866,515.128113 765.771667,510.404175 778.786133,494.620331 
	C781.214783,496.052307 783.726746,497.533386 786.671570,499.269653 
	C780.570679,509.393036 771.808472,515.250610 760.885132,518.323425 
	C734.708679,525.687012 708.590454,512.762451 700.728394,488.453613 
	C697.353699,478.019501 697.361450,467.519745 700.582520,456.636658 
M777.325317,467.995361 
	C778.575562,467.887543 779.825745,467.779694 781.056580,467.673553 
	C780.287170,447.912872 764.444153,432.919861 745.185852,433.397919 
	C724.796326,433.904053 708.428040,449.236542 708.550049,467.995544 
	C731.152588,467.995544 753.757996,467.995544 777.325317,467.995361 
z"/>
<path fill="#494949" opacity="1.000000" stroke="none" 
	d="
M1029.191040,507.259949 
	C1026.093140,515.023621 1023.414917,522.554688 1020.091919,529.789490 
	C1014.531921,541.894226 1006.434082,551.458557 992.602234,554.416443 
	C990.364807,554.894836 988.027588,554.906982 985.345337,555.173462 
	C985.345337,552.038452 985.345337,549.304749 985.345337,546.342346 
	C1001.346130,545.736450 1008.313416,534.568909 1013.384766,521.486755 
	C1013.973999,519.966858 1013.264038,517.623596 1012.512573,515.951355 
	C999.851440,487.776154 987.085388,459.648132 974.355286,431.503876 
	C973.678894,430.008545 973.115295,428.462219 972.487122,426.909912 
	C981.165222,424.902802 981.772644,425.164795 985.279419,432.859680 
	C995.815125,455.978271 1006.323547,479.109314 1016.850525,502.231873 
	C1017.454224,503.557861 1018.128418,504.851715 1019.244873,507.130157 
	C1021.675171,501.054840 1023.801819,495.826660 1025.862183,490.572479 
	C1033.196289,471.868958 1040.520752,453.161591 1047.822388,434.445343 
	C1051.201660,425.782898 1051.173950,425.772064 1061.208374,426.419403 
	C1050.520020,453.393707 1039.920410,480.143921 1029.191040,507.259949 
z"/>
<path fill="#4B4B4B" opacity="1.000000" stroke="none" 
	d="
M610.545532,428.508942 
	C610.557129,432.889160 610.557129,436.823456 610.557129,442.150787 
	C612.385437,439.826385 613.346069,438.610657 614.300842,437.390381 
	C627.372192,420.683716 655.917297,419.572418 670.101257,435.223206 
	C675.719543,441.422516 678.597595,448.941406 678.735291,457.077179 
	C679.076050,477.210510 678.847168,497.353485 678.847168,517.838989 
	C675.734497,517.838989 672.701233,517.838989 669.147705,517.838989 
	C669.147705,516.080566 669.147644,514.460083 669.147644,512.839539 
	C669.147827,495.677734 669.162415,478.515869 669.143677,461.354095 
	C669.127686,446.768097 662.445068,437.139526 650.386536,434.252716 
	C635.983887,430.804718 620.933777,436.485870 615.491638,448.897034 
	C612.516357,455.682281 611.110779,463.553070 610.773132,471.014679 
	C610.074219,486.458344 610.562317,501.955750 610.562317,517.806641 
	C607.372070,517.806641 604.511353,517.806641 601.395874,517.806641 
	C601.395874,487.421631 601.395874,457.162109 601.395874,425.436188 
	C604.706238,426.387756 607.620056,427.225372 610.545532,428.508942 
z"/>
<path fill="#515151" opacity="1.000000" stroke="none" 
	d="
M812.402161,496.999634 
	C812.402283,473.216949 812.402283,449.934204 812.402283,426.389038 
	C815.671692,426.389038 818.424255,426.389038 821.616333,426.389038 
	C821.616333,431.385956 821.616333,436.308777 821.616333,441.231628 
	C829.005249,430.348724 838.933960,424.994690 852.226318,425.001862 
	C852.226318,427.926880 852.226318,430.661591 852.226318,433.689453 
	C851.444641,433.849945 850.520386,434.112000 849.578369,434.222412 
	C832.904297,436.176453 822.620544,446.764374 822.109558,463.609314 
	C821.619873,479.752014 821.921875,495.918732 821.877441,512.074890 
	C821.872437,513.898682 821.876831,515.722534 821.876831,517.890747 
	C818.760559,517.890747 815.869507,517.890747 812.402039,517.890747 
	C812.402039,511.040680 812.402039,504.270142 812.402161,496.999634 
z"/>
<path fill="#6AB1E0" opacity="1.000000" stroke="none" 
	d="
M140.116486,584.349731 
	C145.361725,585.924377 150.901672,587.544128 156.231934,589.685730 
	C185.702576,601.526245 216.257614,609.564941 247.283371,616.008179 
	C249.483475,616.465088 251.603867,617.305847 253.852448,618.302490 
	C214.738358,611.743958 176.512222,601.579041 140.116486,584.349731 
z"/>
<path fill="#6AB1E0" opacity="1.000000" stroke="none" 
	d="
M133.886383,581.367310 
	C135.676834,581.871887 137.689133,582.658264 139.833405,583.782776 
	C138.012985,583.297058 136.060608,582.473145 133.886383,581.367310 
z"/>
<path fill="#77C6E5" opacity="1.000000" stroke="none" 
	d="
M190.820221,68.150757 
	C190.865906,68.708275 190.575836,69.287529 189.930573,69.885193 
	C189.878418,69.326569 190.181442,68.749542 190.820221,68.150757 
z"/>
<path fill="#2E5B7A" opacity="1.000000" stroke="none" 
	d="
M210.632111,50.268661 
	C210.770523,50.670509 210.599548,51.212513 210.167358,51.879810 
	C210.044998,51.473011 210.183853,50.940910 210.632111,50.268661 
z"/>
<path fill="#77C6E5" opacity="1.000000" stroke="none" 
	d="
M297.758240,560.953613 
	C297.238342,561.066406 296.674225,560.851379 296.028564,560.342529 
	C296.536041,560.240967 297.125031,560.433350 297.758240,560.953613 
z"/>
<path fill="#5EA9DD" opacity="1.000000" stroke="none" 
	d="
M281.999634,68.998489 
	C282.146973,68.794090 282.305725,68.602554 282.464508,68.411026 
	C282.456055,68.628319 282.447601,68.845612 282.237854,69.050278 
	C282.036621,69.037651 282.011017,69.011353 281.999634,68.998489 
z"/>
<path fill="#77C6E5" opacity="1.000000" stroke="none" 
	d="
M193.906006,65.076065 
	C194.018387,65.354942 193.837601,65.681046 193.376617,66.062469 
	C193.268570,65.786293 193.440704,65.454796 193.906006,65.076065 
z"/>
<path fill="#77C6E5" opacity="1.000000" stroke="none" 
	d="
M192.840240,66.131592 
	C192.968460,66.415520 192.816879,66.733452 192.390259,67.090454 
	C192.263611,66.808197 192.412018,66.486893 192.840240,66.131592 
z"/>
<path fill="#77C6E5" opacity="1.000000" stroke="none" 
	d="
M191.846008,67.141624 
	C191.986450,67.440338 191.841873,67.765854 191.417450,68.115524 
	C191.278763,67.815933 191.419876,67.492188 191.846008,67.141624 
z"/>
<path fill="#FFFFFF" opacity="1.000000" stroke="none" 
	d="
M221.729156,119.146317 
	C221.851028,119.609322 221.660904,120.238411 221.218536,121.121468 
	C221.116562,120.687752 221.266876,120.000084 221.729156,119.146317 
z"/>
<path fill="#FBFBFB" opacity="1.000000" stroke="none" 
	d="
M317.110596,315.875793 
	C318.241882,319.556854 319.292542,322.845459 320.473907,326.543335 
	C304.416809,326.543335 288.883026,326.543335 272.754761,326.543335 
	C280.617676,301.874420 288.448792,277.305359 296.615814,251.682404 
	C303.622314,273.580048 310.326111,294.531708 317.110596,315.875793 
z"/>
<path fill="#FDFDFD" opacity="1.000000" stroke="none" 
	d="
M733.102478,314.167145 
	C730.181946,314.167145 727.743958,314.167145 725.200562,314.167145 
	C728.792908,299.375885 741.439575,290.528656 757.523315,291.169342 
	C772.930237,291.783081 785.179382,301.206421 786.988464,314.167145 
	C769.154602,314.167145 751.369873,314.167145 733.102478,314.167145 
z"/>
<path fill="#FEFEFE" opacity="1.000000" stroke="none" 
	d="
M940.026611,493.925995 
	C928.639343,509.266357 911.087769,514.900574 894.416992,508.834259 
	C878.738953,503.129181 868.330566,487.477020 869.093933,470.753265 
	C869.849243,454.207855 880.511597,440.056183 895.866089,435.219849 
	C911.273804,430.366791 928.369324,435.484955 938.109253,447.866852 
	C948.456848,461.021210 949.271729,478.885468 940.026611,493.925995 
z"/>
<path fill="#FEFEFE" opacity="1.000000" stroke="none" 
	d="
M542.000000,467.994019 
	C526.722412,467.994019 511.944794,467.994019 497.164093,467.994019 
	C497.484528,448.784241 513.940735,433.574799 534.189880,433.385834 
	C553.506653,433.205597 569.136230,448.183960 569.870239,467.994019 
	C560.740662,467.994019 551.620300,467.994019 542.000000,467.994019 
z"/>
<path fill="#FDFDFD" opacity="1.000000" stroke="none" 
	d="
M776.844360,467.995453 
	C753.757996,467.995544 731.152588,467.995544 708.550049,467.995544 
	C708.428040,449.236542 724.796326,433.904053 745.185852,433.397919 
	C764.444153,432.919861 780.287170,447.912872 781.056580,467.673553 
	C779.825745,467.779694 778.575562,467.887543 776.844360,467.995453 
z"/>
</svg>