<svg version="1.1" id="Layer_1" xmlns="http://www.w3.org/2000/svg" xmlns:xlink="http://www.w3.org/1999/xlink" x="0px" y="0px"
	 width="100%" viewBox="0 0 2037 722" enable-background="new 0 0 2037 722" xml:space="preserve">
<path fill="#00000000" opacity="1.000000" stroke="none" 
	d="
M1458.000000,723.000000 
	C972.000000,723.000000 486.500000,723.000000 1.000000,723.000000 
	C1.000000,482.333344 1.000000,241.666672 1.000000,1.000000 
	C680.000000,1.000000 1359.000000,1.000000 2038.000000,1.000000 
	C2038.000000,241.666672 2038.000000,482.333344 2038.000000,723.000000 
	C1844.833374,723.000000 1651.666626,723.000000 1458.000000,723.000000 
M272.000000,88.500031 
	C272.000000,156.665604 272.020844,224.831192 271.935089,292.996643 
	C271.931030,296.217468 272.821472,298.477661 275.140808,300.752197 
	C287.156708,312.535797 298.947632,324.548584 310.935516,336.361145 
	C313.077972,338.472229 314.084808,340.505005 314.081177,343.637512 
	C313.980042,431.133057 314.000000,518.628784 314.000000,606.124451 
	C314.000000,607.725830 314.000000,609.327209 314.000000,611.611389 
	C309.328186,610.643494 305.355408,609.078796 301.425995,609.180908 
	C295.596588,609.332458 294.901306,606.681335 294.909912,601.748352 
	C295.039856,527.418945 295.006165,453.089233 294.961578,378.759613 
	C294.960541,377.041229 294.947845,374.880890 293.994873,373.672577 
	C283.110565,359.872192 272.027039,346.229095 261.028320,332.518646 
	C253.295059,322.878723 245.636475,313.178864 237.897003,303.543945 
	C229.326813,292.874908 220.680969,282.266693 212.108093,271.599823 
	C204.366013,261.966675 196.721710,252.254730 188.946991,242.648193 
	C185.245071,238.074020 181.340286,233.664047 177.527405,229.179688 
	C177.168274,229.323120 176.809158,229.466537 176.450027,229.609970 
	C176.450027,337.618042 176.450027,445.626099 176.450027,554.435303 
	C172.732590,551.300415 169.624008,548.927856 166.800003,546.254639 
	C154.159698,534.289246 143.218140,521.020691 134.305634,505.953766 
	C123.027657,486.887909 116.909676,466.349121 116.220993,444.418457 
	C115.911102,434.550018 117.361610,424.494659 119.102760,414.718170 
	C124.321404,385.415588 136.680252,359.335266 155.907669,336.547882 
	C158.228271,333.797638 160.313629,330.848816 162.508011,327.992004 
	C160.759674,327.718658 159.638870,327.968018 158.912552,328.642303 
	C148.472153,338.334839 137.758713,347.762848 127.762115,357.896851 
	C113.164017,372.695526 102.691757,390.279449 94.866798,409.503052 
	C89.725578,422.133423 85.868568,435.243103 85.268150,448.748230 
	C84.692863,461.687866 85.630768,474.808807 87.154892,487.702148 
	C89.699112,509.224823 99.072411,528.387207 110.902031,546.143372 
	C120.240562,560.160461 131.340927,572.799072 144.214722,583.974915 
	C158.365143,596.259033 173.345963,607.235291 189.727097,616.168213 
	C217.346664,631.229858 246.432251,642.347168 277.267944,649.294495 
	C299.904907,654.394653 322.740112,657.384705 345.758881,658.781616 
	C359.772095,659.631958 373.939667,658.733643 387.993530,657.885376 
	C401.022644,657.098999 414.117920,656.054077 426.957001,653.818787 
	C442.800568,651.060303 458.622864,647.696838 474.070770,643.259399 
	C498.651215,636.198608 522.104797,626.233398 544.145386,613.036438 
	C566.322815,599.757446 586.328125,584.009644 603.272156,564.349670 
	C615.081909,550.647034 624.800354,535.758118 632.005005,519.175232 
	C639.169861,502.684113 643.321716,485.397034 643.770203,467.534210 
	C644.034912,456.989471 642.629700,446.285583 640.904236,435.830109 
	C635.797607,404.886902 620.306152,379.009308 599.500977,356.304108 
	C590.430054,346.404785 579.621826,338.093994 569.545288,329.126068 
	C568.771851,328.437714 567.542297,328.261749 566.524719,327.847626 
	C569.579834,332.745911 573.114563,336.811493 576.486450,341.007904 
	C586.970276,354.055176 594.976074,368.623993 600.827759,384.179901 
	C606.040894,398.038116 609.720154,412.342499 611.213257,427.299835 
	C612.798889,443.183868 611.744995,458.596466 607.561768,473.881256 
	C600.166931,500.901276 585.238037,523.276489 565.080383,542.390259 
	C564.352417,543.080505 563.397156,543.531128 562.353027,544.222412 
	C562.353027,438.949158 562.353027,334.233917 562.353027,228.340790 
	C559.257019,230.724838 557.116638,232.343826 555.007202,234.002182 
	C543.251892,243.243729 531.508972,252.500946 519.752380,261.740845 
	C507.747131,271.176147 495.715149,280.577454 483.724579,290.031342 
	C473.631897,297.988861 463.597198,306.019958 453.508850,313.983032 
	C441.646088,323.346741 429.800110,332.733032 417.841888,341.973694 
	C414.662598,344.430420 412.877106,346.911896 412.885193,351.340790 
	C413.040436,436.336304 413.000000,521.332153 413.000000,606.327942 
	C413.000000,608.115784 413.000000,609.903564 413.000000,611.821777 
	C406.781494,612.297913 401.004913,612.740173 395.295776,613.177246 
	C395.114227,612.051636 395.017944,611.733398 395.017914,611.415100 
	C395.007568,521.419617 394.993866,431.424164 395.091888,341.428772 
	C395.093414,340.027832 396.163940,338.287689 397.264343,337.287689 
	C401.864655,333.107147 406.615295,329.086365 411.406647,325.122864 
	C420.445770,317.645508 429.653381,310.366974 438.540619,302.715027 
	C440.276733,301.220215 441.823456,298.417480 441.851929,296.197388 
	C442.106079,276.368317 442.061981,256.534058 441.898682,236.703064 
	C441.883301,234.837372 440.922272,232.511642 439.605896,231.191879 
	C384.998474,176.444626 330.301453,121.786774 275.601624,67.131760 
	C274.751190,66.282051 273.725647,65.607620 272.000000,64.224976 
	C272.000000,72.651840 272.000000,80.075951 272.000000,88.500031 
M1829.495239,531.003174 
	C1835.391602,532.002136 1841.284790,533.791992 1847.185059,533.815735 
	C1856.173340,533.851990 1865.305786,533.433533 1874.127808,531.834106 
	C1891.127563,528.752380 1905.591187,520.244812 1916.395630,506.867126 
	C1928.679688,491.657623 1934.047607,473.670105 1934.009644,454.089935 
	C1933.967285,432.260895 1934.058350,410.431488 1933.980713,388.602631 
	C1933.923340,372.478546 1930.713257,357.213104 1922.084351,343.234619 
	C1914.395386,330.778625 1903.894897,321.452667 1890.802124,315.513947 
	C1874.757446,308.236267 1857.789185,306.584351 1840.195312,308.869843 
	C1820.797119,311.389709 1804.511108,319.080414 1791.525513,333.898438 
	C1780.453247,346.532990 1773.757690,361.451233 1773.329224,377.759308 
	C1772.522339,408.469818 1773.108643,439.252350 1774.253418,469.962524 
	C1774.766479,483.721039 1781.356201,496.008972 1790.205078,506.577301 
	C1800.367432,518.714294 1813.164062,527.057739 1829.495239,531.003174 
M1617.027954,479.457458 
	C1612.535645,483.320892 1608.484131,487.929199 1603.463867,490.900635 
	C1591.021484,498.264923 1573.316406,495.701233 1562.289429,485.959290 
	C1561.236938,485.029358 1558.300537,484.493011 1557.590454,485.177124 
	C1548.154297,494.267914 1538.960205,503.609680 1529.520508,513.074402 
	C1543.937378,527.087036 1561.370239,532.598816 1580.344360,533.912720 
	C1592.141602,534.729675 1603.883057,533.593750 1615.245239,529.984863 
	C1629.779785,525.368286 1641.885620,517.092163 1650.957153,504.846619 
	C1662.565796,489.176361 1666.936523,471.140594 1666.988892,451.901184 
	C1667.039673,433.234711 1667.208374,414.564667 1666.909912,395.902802 
	C1666.765869,386.901581 1666.423340,377.781555 1664.856079,368.948547 
	C1660.554565,344.704620 1646.882935,326.769379 1625.067261,315.781250 
	C1608.975830,307.676331 1591.610352,306.025452 1573.860718,309.990875 
	C1555.992310,313.982788 1541.329956,323.469757 1530.267944,337.665863 
	C1518.311035,353.010315 1513.460205,370.661591 1515.825317,390.440887 
	C1517.526611,404.668365 1522.034180,417.432495 1531.034790,428.435486 
	C1549.820435,451.400482 1583.173706,458.201721 1610.136353,447.347931 
	C1614.684326,445.517151 1619.004395,443.120117 1623.844360,440.784607 
	C1623.945801,454.180267 1625.992798,467.392181 1617.027954,479.457458 
M831.453308,350.038300 
	C829.307739,353.630463 826.843750,357.072571 825.068787,360.839386 
	C814.154602,384.001801 810.559814,408.288177 812.803345,433.826965 
	C814.121094,448.826874 817.026794,463.207764 823.056641,476.921906 
	C829.277466,491.070343 838.641235,503.086151 850.551880,512.731812 
	C866.944397,526.007019 886.381775,532.233032 907.178711,533.893433 
	C920.648682,534.968872 934.247253,534.240234 947.322388,530.768982 
	C980.691101,521.910278 1003.013245,500.692322 1015.031189,468.435150 
	C1015.981018,465.885681 1016.263489,464.709656 1012.753296,463.823547 
	C999.911804,460.581726 987.214539,456.768799 974.449219,453.167084 
	C974.173767,453.799652 973.989746,454.231812 973.797852,454.660461 
	C973.536682,455.243744 973.220520,455.807404 973.011841,456.408569 
	C967.046448,473.596832 955.918701,485.930054 938.496277,491.711243 
	C925.714722,495.952393 912.486572,495.859619 899.491516,492.692108 
	C887.843811,489.853058 878.244690,483.574524 870.928345,473.784088 
	C861.290955,460.887787 857.313782,446.019562 856.149841,430.459412 
	C854.887695,413.586426 856.386475,396.767792 863.114563,380.995575 
	C868.571533,368.203003 877.483337,357.941223 890.390930,352.413940 
	C904.621216,346.320221 919.744019,345.215088 934.776123,349.133636 
	C946.392639,352.161774 956.902710,357.645111 963.613464,368.216064 
	C967.776794,374.774170 971.325378,381.722565 975.187256,388.561981 
	C987.475708,385.138641 1000.269653,381.497101 1013.118469,378.061005 
	C1015.657471,377.382080 1016.075073,376.893829 1015.145874,374.150269 
	C1010.784729,361.274078 1004.120361,349.728638 995.091858,339.713257 
	C977.015442,319.661041 953.782471,309.968872 927.270630,308.137054 
	C914.508240,307.255280 901.704285,307.889740 889.067383,310.928162 
	C865.146118,316.679810 846.095032,329.379456 831.453308,350.038300 
M1121.030884,388.321411 
	C1127.688843,402.232544 1134.322632,416.155365 1141.012939,430.050964 
	C1145.965698,440.337402 1150.877441,450.646393 1156.034180,460.830475 
	C1158.581787,465.861755 1158.825439,470.219238 1156.036255,475.543732 
	C1147.379517,492.069275 1139.347412,508.922394 1131.117065,525.670166 
	C1130.518677,526.888123 1130.275635,528.280762 1129.781616,529.867615 
	C1144.782227,529.867615 1159.251587,529.867615 1173.719482,529.867615 
	C1175.497925,525.966064 1177.198608,522.144348 1178.973145,518.357117 
	C1190.347778,494.079773 1201.702271,469.792908 1213.135986,445.543304 
	C1221.696533,427.386932 1230.350952,409.274658 1238.990601,391.155701 
	C1249.569580,368.969543 1260.202271,346.808929 1270.749146,324.607452 
	C1272.652222,320.601166 1274.252197,316.450836 1276.148560,312.000000 
	C1262.568359,312.000000 1249.419800,312.131744 1236.277344,311.908020 
	C1232.960449,311.851593 1231.263916,312.907806 1229.965576,315.863220 
	C1223.065796,331.567352 1216.065308,347.227905 1208.997681,362.857422 
	C1200.473145,381.708313 1191.849609,400.514435 1183.254761,419.333496 
	C1182.836914,420.248138 1182.283081,421.100647 1181.792480,421.982056 
	C1180.932251,421.196472 1179.702515,420.575775 1179.267212,419.600525 
	C1173.125244,405.839874 1167.039185,392.053589 1161.043457,378.228455 
	C1152.502319,358.533966 1143.620239,338.969360 1135.798706,318.991028 
	C1133.258545,312.502502 1129.786987,311.709320 1123.934082,311.884460 
	C1111.352661,312.260864 1098.752197,312.000000 1085.114624,312.000000 
	C1097.323730,337.731110 1109.141235,362.636780 1121.030884,388.321411 
M1389.500000,451.000000 
	C1397.996948,450.999969 1406.496704,451.111084 1414.987671,450.886169 
	C1416.341431,450.850311 1418.790283,449.336761 1418.814087,448.454468 
	C1419.086914,438.369843 1418.987671,428.275146 1418.987671,418.292114 
	C1388.335815,418.292114 1358.271240,418.292114 1328.292236,418.292114 
	C1328.292236,429.323700 1328.292236,440.060699 1328.292236,451.000000 
	C1348.555908,451.000000 1368.527954,451.000000 1389.500000,451.000000 
z"/>
<path fill="#000000" opacity="1.000000" stroke="none" 
	d="
M272.000000,88.000046 
	C272.000000,80.075951 272.000000,72.651840 272.000000,64.224976 
	C273.725647,65.607620 274.751190,66.282051 275.601624,67.131760 
	C330.301453,121.786774 384.998474,176.444626 439.605896,231.191879 
	C440.922272,232.511642 441.883301,234.837372 441.898682,236.703064 
	C442.061981,256.534058 442.106079,276.368317 441.851929,296.197388 
	C441.823456,298.417480 440.276733,301.220215 438.540619,302.715027 
	C429.653381,310.366974 420.445770,317.645508 411.406647,325.122864 
	C406.615295,329.086365 401.864655,333.107147 397.264343,337.287689 
	C396.163940,338.287689 395.093414,340.027832 395.091888,341.428772 
	C394.993866,431.424164 395.007568,521.419617 395.017914,611.415100 
	C395.017944,611.733398 395.114227,612.051636 395.295776,613.177246 
	C401.004913,612.740173 406.781494,612.297913 413.000000,611.821777 
	C413.000000,609.903564 413.000000,608.115784 413.000000,606.327942 
	C413.000000,521.332153 413.040436,436.336304 412.885193,351.340790 
	C412.877106,346.911896 414.662598,344.430420 417.841888,341.973694 
	C429.800110,332.733032 441.646088,323.346741 453.508850,313.983032 
	C463.597198,306.019958 473.631897,297.988861 483.724579,290.031342 
	C495.715149,280.577454 507.747131,271.176147 519.752380,261.740845 
	C531.508972,252.500946 543.251892,243.243729 555.007202,234.002182 
	C557.116638,232.343826 559.257019,230.724838 562.353027,228.340790 
	C562.353027,334.233917 562.353027,438.949158 562.353027,544.222412 
	C563.397156,543.531128 564.352417,543.080505 565.080383,542.390259 
	C585.238037,523.276489 600.166931,500.901276 607.561768,473.881256 
	C611.744995,458.596466 612.798889,443.183868 611.213257,427.299835 
	C609.720154,412.342499 606.040894,398.038116 600.827759,384.179901 
	C594.976074,368.623993 586.970276,354.055176 576.486450,341.007904 
	C573.114563,336.811493 569.579834,332.745911 566.524719,327.847626 
	C567.542297,328.261749 568.771851,328.437714 569.545288,329.126068 
	C579.621826,338.093994 590.430054,346.404785 599.500977,356.304108 
	C620.306152,379.009308 635.797607,404.886902 640.904236,435.830109 
	C642.629700,446.285583 644.034912,456.989471 643.770203,467.534210 
	C643.321716,485.397034 639.169861,502.684113 632.005005,519.175232 
	C624.800354,535.758118 615.081909,550.647034 603.272156,564.349670 
	C586.328125,584.009644 566.322815,599.757446 544.145386,613.036438 
	C522.104797,626.233398 498.651215,636.198608 474.070770,643.259399 
	C458.622864,647.696838 442.800568,651.060303 426.957001,653.818787 
	C414.117920,656.054077 401.022644,657.098999 387.993530,657.885376 
	C373.939667,658.733643 359.772095,659.631958 345.758881,658.781616 
	C322.740112,657.384705 299.904907,654.394653 277.267944,649.294495 
	C246.432251,642.347168 217.346664,631.229858 189.727097,616.168213 
	C173.345963,607.235291 158.365143,596.259033 144.214722,583.974915 
	C131.340927,572.799072 120.240562,560.160461 110.902031,546.143372 
	C99.072411,528.387207 89.699112,509.224823 87.154892,487.702148 
	C85.630768,474.808807 84.692863,461.687866 85.268150,448.748230 
	C85.868568,435.243103 89.725578,422.133423 94.866798,409.503052 
	C102.691757,390.279449 113.164017,372.695526 127.762115,357.896851 
	C137.758713,347.762848 148.472153,338.334839 158.912552,328.642303 
	C159.638870,327.968018 160.759674,327.718658 162.508011,327.992004 
	C160.313629,330.848816 158.228271,333.797638 155.907669,336.547882 
	C136.680252,359.335266 124.321404,385.415588 119.102760,414.718170 
	C117.361610,424.494659 115.911102,434.550018 116.220993,444.418457 
	C116.909676,466.349121 123.027657,486.887909 134.305634,505.953766 
	C143.218140,521.020691 154.159698,534.289246 166.800003,546.254639 
	C169.624008,548.927856 172.732590,551.300415 176.450027,554.435303 
	C176.450027,445.626099 176.450027,337.618042 176.450027,229.609970 
	C176.809158,229.466537 177.168274,229.323120 177.527405,229.179688 
	C181.340286,233.664047 185.245071,238.074020 188.946991,242.648193 
	C196.721710,252.254730 204.366013,261.966675 212.108093,271.599823 
	C220.680969,282.266693 229.326813,292.874908 237.897003,303.543945 
	C245.636475,313.178864 253.295059,322.878723 261.028320,332.518646 
	C272.027039,346.229095 283.110565,359.872192 293.994873,373.672577 
	C294.947845,374.880890 294.960541,377.041229 294.961578,378.759613 
	C295.006165,453.089233 295.039856,527.418945 294.909912,601.748352 
	C294.901306,606.681335 295.596588,609.332458 301.425995,609.180908 
	C305.355408,609.078796 309.328186,610.643494 314.000000,611.611389 
	C314.000000,609.327209 314.000000,607.725830 314.000000,606.124451 
	C314.000000,518.628784 313.980042,431.133057 314.081177,343.637512 
	C314.084808,340.505005 313.077972,338.472229 310.935516,336.361145 
	C298.947632,324.548584 287.156708,312.535797 275.140808,300.752197 
	C272.821472,298.477661 271.931030,296.217468 271.935089,292.996643 
	C272.020844,224.831192 272.000000,156.665604 272.000000,88.000046 
M312.599823,205.000000 
	C310.825836,205.000000 309.051819,205.000000 307.255066,205.000000 
	C307.255066,221.578491 307.255066,237.648758 307.255066,253.742584 
	C319.916107,253.742584 332.320312,253.742584 344.740875,253.742584 
	C344.740875,237.413437 344.740875,221.343048 344.740875,205.000000 
	C334.181610,205.000000 323.879211,205.000000 312.599823,205.000000 
M511.000000,507.499878 
	C511.000000,514.264771 511.000000,521.029724 511.000000,527.712646 
	C523.979309,527.712646 536.382996,527.712646 548.713257,527.712646 
	C548.713257,511.354431 548.713257,495.285095 548.713257,479.287292 
	C536.020813,479.287292 523.617126,479.287292 511.000000,479.287292 
	C511.000000,488.548615 511.000000,497.524231 511.000000,507.499878 
M235.000000,459.495300 
	C235.000000,448.390656 235.000000,437.286011 235.000000,425.964111 
	C222.008820,425.964111 209.593033,425.964111 197.300598,425.964111 
	C197.300598,441.689606 197.300598,457.751373 197.300598,473.708130 
	C210.000900,473.708130 222.398666,473.708130 235.000000,473.708130 
	C235.000000,469.109314 235.000000,464.800720 235.000000,459.495300 
M480.000000,383.499390 
	C480.000000,373.736328 480.000000,363.973267 480.000000,354.286682 
	C467.022003,354.286682 454.618347,354.286682 442.286194,354.286682 
	C442.286194,370.311035 442.286194,386.047119 442.286194,401.713257 
	C454.978088,401.713257 467.381744,401.713257 480.000000,401.713257 
	C480.000000,395.785034 480.000000,390.141907 480.000000,383.499390 
z"/>
<path fill="#000000" opacity="1.000000" stroke="none" 
	d="
M1829.070312,531.000671 
	C1813.164062,527.057739 1800.367432,518.714294 1790.205078,506.577301 
	C1781.356201,496.008972 1774.766479,483.721039 1774.253418,469.962524 
	C1773.108643,439.252350 1772.522339,408.469818 1773.329224,377.759308 
	C1773.757690,361.451233 1780.453247,346.532990 1791.525513,333.898438 
	C1804.511108,319.080414 1820.797119,311.389709 1840.195312,308.869843 
	C1857.789185,306.584351 1874.757446,308.236267 1890.802124,315.513947 
	C1903.894897,321.452667 1914.395386,330.778625 1922.084351,343.234619 
	C1930.713257,357.213104 1933.923340,372.478546 1933.980713,388.602631 
	C1934.058350,410.431488 1933.967285,432.260895 1934.009644,454.089935 
	C1934.047607,473.670105 1928.679688,491.657623 1916.395630,506.867126 
	C1905.591187,520.244812 1891.127563,528.752380 1874.127808,531.834106 
	C1865.305786,533.433533 1856.173340,533.851990 1847.185059,533.815735 
	C1841.284790,533.791992 1835.391602,532.002136 1829.070312,531.000671 
M1815.000000,447.485077 
	C1815.512817,453.680695 1815.300537,460.042908 1816.678101,466.039886 
	C1820.428711,482.368469 1836.513550,494.810211 1854.551514,494.287109 
	C1873.764160,493.729980 1891.271851,477.077087 1891.060669,457.568878 
	C1890.804565,433.914551 1890.806152,410.253052 1891.082642,386.599182 
	C1891.218384,374.990692 1887.446899,365.504303 1879.051636,357.442596 
	C1864.534790,343.502533 1842.339600,344.038361 1827.557373,357.043640 
	C1818.925781,364.637665 1815.152222,374.705505 1815.050781,386.014435 
	C1814.870117,406.171326 1815.000000,426.331024 1815.000000,447.485077 
z"/>
<path fill="#000000" opacity="1.000000" stroke="none" 
	d="
M1617.298096,479.201538 
	C1625.992798,467.392181 1623.945801,454.180267 1623.844360,440.784607 
	C1619.004395,443.120117 1614.684326,445.517151 1610.136353,447.347931 
	C1583.173706,458.201721 1549.820435,451.400482 1531.034790,428.435486 
	C1522.034180,417.432495 1517.526611,404.668365 1515.825317,390.440887 
	C1513.460205,370.661591 1518.311035,353.010315 1530.267944,337.665863 
	C1541.329956,323.469757 1555.992310,313.982788 1573.860718,309.990875 
	C1591.610352,306.025452 1608.975830,307.676331 1625.067261,315.781250 
	C1646.882935,326.769379 1660.554565,344.704620 1664.856079,368.948547 
	C1666.423340,377.781555 1666.765869,386.901581 1666.909912,395.902802 
	C1667.208374,414.564667 1667.039673,433.234711 1666.988892,451.901184 
	C1666.936523,471.140594 1662.565796,489.176361 1650.957153,504.846619 
	C1641.885620,517.092163 1629.779785,525.368286 1615.245239,529.984863 
	C1603.883057,533.593750 1592.141602,534.729675 1580.344360,533.912720 
	C1561.370239,532.598816 1543.937378,527.087036 1529.520508,513.074402 
	C1538.960205,503.609680 1548.154297,494.267914 1557.590454,485.177124 
	C1558.300537,484.493011 1561.236938,485.029358 1562.289429,485.959290 
	C1573.316406,495.701233 1591.021484,498.264923 1603.463867,490.900635 
	C1608.484131,487.929199 1612.535645,483.320892 1617.298096,479.201538 
M1558.000000,378.689362 
	C1558.027588,381.848389 1557.433716,385.163422 1558.181396,388.141602 
	C1563.875244,410.820374 1587.463989,422.484314 1608.057007,409.924530 
	C1621.807373,401.538239 1626.452271,388.548340 1623.650513,374.807343 
	C1619.885620,356.342651 1601.641479,344.584320 1583.515381,348.962067 
	C1569.815063,352.270935 1558.863037,364.375397 1558.000000,378.689362 
z"/>
<path fill="#000000" opacity="1.000000" stroke="none" 
	d="
M831.720581,349.778992 
	C846.095032,329.379456 865.146118,316.679810 889.067383,310.928162 
	C901.704285,307.889740 914.508240,307.255280 927.270630,308.137054 
	C953.782471,309.968872 977.015442,319.661041 995.091858,339.713257 
	C1004.120361,349.728638 1010.784729,361.274078 1015.145874,374.150269 
	C1016.075073,376.893829 1015.657471,377.382080 1013.118469,378.061005 
	C1000.269653,381.497101 987.475708,385.138641 975.187256,388.561981 
	C971.325378,381.722565 967.776794,374.774170 963.613464,368.216064 
	C956.902710,357.645111 946.392639,352.161774 934.776123,349.133636 
	C919.744019,345.215088 904.621216,346.320221 890.390930,352.413940 
	C877.483337,357.941223 868.571533,368.203003 863.114563,380.995575 
	C856.386475,396.767792 854.887695,413.586426 856.149841,430.459412 
	C857.313782,446.019562 861.290955,460.887787 870.928345,473.784088 
	C878.244690,483.574524 887.843811,489.853058 899.491516,492.692108 
	C912.486572,495.859619 925.714722,495.952393 938.496277,491.711243 
	C955.918701,485.930054 967.046448,473.596832 973.011841,456.408569 
	C973.220520,455.807404 973.536682,455.243744 973.797852,454.660461 
	C973.989746,454.231812 974.173767,453.799652 974.449219,453.167084 
	C987.214539,456.768799 999.911804,460.581726 1012.753296,463.823547 
	C1016.263489,464.709656 1015.981018,465.885681 1015.031189,468.435150 
	C1003.013245,500.692322 980.691101,521.910278 947.322388,530.768982 
	C934.247253,534.240234 920.648682,534.968872 907.178711,533.893433 
	C886.381775,532.233032 866.944397,526.007019 850.551880,512.731812 
	C838.641235,503.086151 829.277466,491.070343 823.056641,476.921906 
	C817.026794,463.207764 814.121094,448.826874 812.803345,433.826965 
	C810.559814,408.288177 814.154602,384.001801 825.068787,360.839386 
	C826.843750,357.072571 829.307739,353.630463 831.720581,349.778992 
z"/>
<path fill="#000000" opacity="1.000000" stroke="none" 
	d="
M1120.994873,387.931946 
	C1109.141235,362.636780 1097.323730,337.731110 1085.114624,312.000000 
	C1098.752197,312.000000 1111.352661,312.260864 1123.934082,311.884460 
	C1129.786987,311.709320 1133.258545,312.502502 1135.798706,318.991028 
	C1143.620239,338.969360 1152.502319,358.533966 1161.043457,378.228455 
	C1167.039185,392.053589 1173.125244,405.839874 1179.267212,419.600525 
	C1179.702515,420.575775 1180.932251,421.196472 1181.792480,421.982056 
	C1182.283081,421.100647 1182.836914,420.248138 1183.254761,419.333496 
	C1191.849609,400.514435 1200.473145,381.708313 1208.997681,362.857422 
	C1216.065308,347.227905 1223.065796,331.567352 1229.965576,315.863220 
	C1231.263916,312.907806 1232.960449,311.851593 1236.277344,311.908020 
	C1249.419800,312.131744 1262.568359,312.000000 1276.148560,312.000000 
	C1274.252197,316.450836 1272.652222,320.601166 1270.749146,324.607452 
	C1260.202271,346.808929 1249.569580,368.969543 1238.990601,391.155701 
	C1230.350952,409.274658 1221.696533,427.386932 1213.135986,445.543304 
	C1201.702271,469.792908 1190.347778,494.079773 1178.973145,518.357117 
	C1177.198608,522.144348 1175.497925,525.966064 1173.719482,529.867615 
	C1159.251587,529.867615 1144.782227,529.867615 1129.781616,529.867615 
	C1130.275635,528.280762 1130.518677,526.888123 1131.117065,525.670166 
	C1139.347412,508.922394 1147.379517,492.069275 1156.036255,475.543732 
	C1158.825439,470.219238 1158.581787,465.861755 1156.034180,460.830475 
	C1150.877441,450.646393 1145.965698,440.337402 1141.012939,430.050964 
	C1134.322632,416.155365 1127.688843,402.232544 1120.994873,387.931946 
z"/>
<path fill="#000000" opacity="1.000000" stroke="none" 
	d="
M1389.000000,451.000000 
	C1368.527954,451.000000 1348.555908,451.000000 1328.292236,451.000000 
	C1328.292236,440.060699 1328.292236,429.323700 1328.292236,418.292114 
	C1358.271240,418.292114 1388.335815,418.292114 1418.987671,418.292114 
	C1418.987671,428.275146 1419.086914,438.369843 1418.814087,448.454468 
	C1418.790283,449.336761 1416.341431,450.850311 1414.987671,450.886169 
	C1406.496704,451.111084 1397.996948,450.999969 1389.000000,451.000000 
z"/>
<path fill="#00000000" opacity="1.000000" stroke="none" 
	d="
M313.088318,205.000000 
	C323.879211,205.000000 334.181610,205.000000 344.740875,205.000000 
	C344.740875,221.343048 344.740875,237.413437 344.740875,253.742584 
	C332.320312,253.742584 319.916107,253.742584 307.255066,253.742584 
	C307.255066,237.648758 307.255066,221.578491 307.255066,205.000000 
	C309.051819,205.000000 310.825836,205.000000 313.088318,205.000000 
z"/>
<path fill="#00000000" opacity="1.000000" stroke="none" 
	d="
M511.000000,506.999878 
	C511.000000,497.524231 511.000000,488.548615 511.000000,479.287292 
	C523.617126,479.287292 536.020813,479.287292 548.713257,479.287292 
	C548.713257,495.285095 548.713257,511.354431 548.713257,527.712646 
	C536.382996,527.712646 523.979309,527.712646 511.000000,527.712646 
	C511.000000,521.029724 511.000000,514.264771 511.000000,506.999878 
z"/>
<path fill="#00000000" opacity="1.000000" stroke="none" 
	d="
M235.000000,459.993713 
	C235.000000,464.800720 235.000000,469.109314 235.000000,473.708130 
	C222.398666,473.708130 210.000900,473.708130 197.300598,473.708130 
	C197.300598,457.751373 197.300598,441.689606 197.300598,425.964111 
	C209.593033,425.964111 222.008820,425.964111 235.000000,425.964111 
	C235.000000,437.286011 235.000000,448.390656 235.000000,459.993713 
z"/>
<path fill="#00000000" opacity="1.000000" stroke="none" 
	d="
M480.000000,383.999084 
	C480.000000,390.141907 480.000000,395.785034 480.000000,401.713257 
	C467.381744,401.713257 454.978088,401.713257 442.286194,401.713257 
	C442.286194,386.047119 442.286194,370.311035 442.286194,354.286682 
	C454.618347,354.286682 467.022003,354.286682 480.000000,354.286682 
	C480.000000,363.973267 480.000000,373.736328 480.000000,383.999084 
z"/>
<path fill="#00000000" opacity="1.000000" stroke="none" 
	d="
M1815.000000,446.987305 
	C1815.000000,426.331024 1814.870117,406.171326 1815.050781,386.014435 
	C1815.152222,374.705505 1818.925781,364.637665 1827.557373,357.043640 
	C1842.339600,344.038361 1864.534790,343.502533 1879.051636,357.442596 
	C1887.446899,365.504303 1891.218384,374.990692 1891.082642,386.599182 
	C1890.806152,410.253052 1890.804565,433.914551 1891.060669,457.568878 
	C1891.271851,477.077087 1873.764160,493.729980 1854.551514,494.287109 
	C1836.513550,494.810211 1820.428711,482.368469 1816.678101,466.039886 
	C1815.300537,460.042908 1815.512817,453.680695 1815.000000,446.987305 
z"/>
<path fill="#00000000" opacity="1.000000" stroke="none" 
	d="
M1558.000000,378.224915 
	C1558.863037,364.375397 1569.815063,352.270935 1583.515381,348.962067 
	C1601.641479,344.584320 1619.885620,356.342651 1623.650513,374.807343 
	C1626.452271,388.548340 1621.807373,401.538239 1608.057007,409.924530 
	C1587.463989,422.484314 1563.875244,410.820374 1558.181396,388.141602 
	C1557.433716,385.163422 1558.027588,381.848389 1558.000000,378.224915 
z"/>
</svg>