<svg width="195" height="40" viewBox="0 0 195 40" fill="none" xmlns="http://www.w3.org/2000/svg">
<path d="M36.3646 12.0387C35.584 10.0028 34.3697 8.18589 32.8951 6.58785C31.0953 4.81468 28.9486 3.41366 26.6067 2.51614C23.4625 1.33403 20.1881 0.96188 16.8487 0.983771C11.2542 1.00566 5.63793 0.93999 0.0433688 1.00566C1.64792e-07 1.55294 0 2.07832 0 2.62559C0.0216843 9.52123 -0.0216838 16.4169 0.0216848 23.2906C4.5754 23.3344 9.15079 23.2468 13.7262 23.3344C13.7912 28.5226 13.7262 33.7107 13.7479 38.8988C17.1306 39.1178 20.6652 39.0521 23.9829 38.264C26.6934 37.673 29.3172 36.4471 31.4857 34.6739C33.7408 32.9007 35.4539 30.4052 36.4731 27.7126C37.2971 25.5454 37.6223 23.3125 37.7524 21.014C37.7958 18.0368 37.4705 14.8407 36.3646 12.0387ZM26.7368 25.9175C24.4166 28.2599 22.1397 30.6241 19.7978 32.9226C19.5593 31.8062 19.646 30.7116 19.646 29.5733C19.646 25.6767 19.646 21.7801 19.646 17.8617C14.7887 17.7522 9.93143 17.8398 5.09582 17.796C5.52951 16.9204 6.22341 16.4169 6.87394 15.7383C8.00152 14.5999 9.02069 13.3959 10.17 12.2795C10.7337 11.7541 11.2325 11.0536 11.9047 10.7033C12.5552 10.6158 13.2058 10.6596 13.8563 10.6596C18.1715 10.6596 22.4867 10.6596 26.8018 10.6596C26.7585 15.7601 26.7802 20.8388 26.7368 25.9175Z" fill="#403C91"/>
<path d="M189.326 9.17041C190.692 9.17041 192.08 9.17041 193.446 9.17041C193.467 14.4461 193.446 19.7218 193.446 24.9975C193.467 25.4135 193.424 25.8075 193.728 26.1359C193.988 26.508 194.573 26.3986 194.985 26.4642C195.007 27.515 195.007 28.5658 194.964 29.6384C193.186 30.2076 191.017 30.1419 189.911 28.4125C189.044 27.1429 189.434 25.9607 189.217 24.5378C189.087 22.7647 189.369 21.0353 189.304 19.2621C189.326 15.9128 189.282 12.5416 189.326 9.17041Z" fill="black"/>
<path d="M65.2491 13.3522C63.3842 11.1193 60.4568 10.0686 57.6162 10.1561C55.4044 10.178 53.1926 10.1124 50.9808 10.178C50.9374 16.6796 50.9374 23.225 50.9808 29.7266C52.6071 29.7923 54.2551 29.7485 55.8814 29.7485C57.6162 29.7485 59.2642 29.858 60.9339 29.3107C63.0373 28.6759 64.8804 27.2748 66.0297 25.3703C67.0922 23.7285 67.3741 21.8897 67.4826 19.9633C67.4175 17.5115 66.8971 15.191 65.2491 13.3522ZM62.4518 22.8967C61.6711 24.5385 60.0665 25.6987 58.245 25.8081C57.2475 25.8519 56.2718 25.83 55.2743 25.8081C55.2526 22.5464 55.2743 19.2847 55.2743 16.001C55.2743 15.3224 55.2526 14.6438 55.3393 13.9652C56.8139 13.9433 58.2017 13.8119 59.5895 14.2716C60.7604 14.6219 61.7579 15.5632 62.365 16.614C63.3842 18.5404 63.3408 20.9484 62.4518 22.8967Z" fill="black"/>
<path d="M137.175 10.1777C137.219 10.5936 137.262 11.0095 137.262 11.4035C137.262 16.1977 137.24 20.9918 137.262 25.7859C139.561 25.8953 141.881 25.7202 144.179 25.8953C144.179 27.165 144.179 28.4347 144.158 29.6825C142.488 29.7919 140.797 29.7044 139.127 29.7262C137.002 29.7044 134.877 29.77 132.773 29.6825C132.773 23.159 132.773 16.6574 132.773 10.1339C134.248 10.1339 135.701 10.112 137.175 10.1777Z" fill="black"/>
<path d="M79.321 15.4318C78.909 16.789 78.2801 18.0806 77.7814 19.416C77.1092 19.3941 76.3719 19.2627 75.7214 19.3941C74.7239 19.6568 73.8999 20.5105 73.6397 21.4956C73.4012 22.5245 73.5096 23.6847 73.4879 24.7573C73.4662 26.3992 73.5529 28.0848 73.4228 29.7266C72.0784 29.7485 70.734 29.7485 69.3895 29.7266C69.2378 28.435 69.3028 27.1435 69.2811 25.8519C69.2811 23.5971 69.2811 21.3205 69.2811 19.0657C69.2811 17.8398 69.2378 16.6358 69.3895 15.4099C70.7123 15.388 72.035 15.388 73.3795 15.4318C73.4012 15.9572 73.4011 16.4826 73.4011 17.008C73.5096 17.008 73.6397 17.008 73.7698 17.008C75.2226 15.4099 77.2393 14.797 79.321 15.4318Z" fill="black"/>
<path d="M89.2742 23.9692C90.4018 23.9473 91.551 24.0567 92.6353 23.8378C92.8955 21.8676 92.9388 19.9412 91.8329 18.2119C91.074 16.8765 89.7729 15.9571 88.3418 15.4755C86.7154 14.9939 84.9156 15.1033 83.3327 15.782C81.8365 16.4387 80.5788 17.7084 79.8849 19.197C79.1042 21.0577 78.9524 23.1592 79.5596 25.0856C80.1017 27.012 81.5546 28.5444 83.3544 29.3106C85.8264 30.2956 89.079 30.1424 91.3776 28.7414C91.0089 27.6906 90.5969 26.6617 90.1416 25.6548C88.4719 26.3553 86.7588 27.012 85.0024 26.202C83.9832 25.7861 83.4628 24.9324 83.0291 23.9692C85.1108 23.8816 87.1925 24.013 89.2742 23.9692ZM83.0074 21.189C83.2243 20.5104 83.4628 19.8975 83.9832 19.4159C85.0024 18.4089 86.6504 18.1681 87.843 19.0218C88.6237 19.5472 88.7754 20.3353 89.014 21.189C88.2333 21.3204 87.4527 21.3423 86.6721 21.3204C85.3927 21.2766 84.2217 21.386 83.0074 21.189Z" fill="black"/>
<path d="M106.449 25.4137C106.254 24.3629 106.406 23.2246 106.362 22.1301C106.319 20.6853 106.536 19.1748 105.929 17.8395C105.408 16.4822 103.999 15.6066 102.633 15.3658C100.399 14.9717 98.0573 15.2125 95.9323 15.9568C95.5636 16.1101 95.1299 16.2633 94.8264 16.526C95.1516 17.5987 95.6504 18.6275 96.1491 19.6345C97.5803 19.0216 98.9897 18.5181 100.573 18.6932C101.353 18.6932 102.047 19.2405 102.351 19.941C102.416 20.3131 102.394 20.7291 102.416 21.1012C100.464 21.1888 98.7946 20.8604 96.9297 21.5609C95.5202 22.0425 94.2842 23.0495 93.959 24.5819C93.8722 25.5013 93.8289 26.5958 94.2409 27.4496C94.8914 28.6973 96.0624 29.573 97.4285 29.8357C99.3367 30.1859 101.527 29.7919 102.958 28.3909C103.066 28.3909 103.153 28.369 103.262 28.369C103.977 29.2008 104.866 29.6168 105.864 29.9451C106.644 29.0038 106.948 27.6685 107.403 26.552C107.035 26.2018 106.536 25.961 106.449 25.4137ZM102.199 25.7421C101.375 26.7491 99.9439 26.8147 98.7512 26.5958C98.2742 26.3331 97.8188 25.7421 97.8622 25.1729C97.9923 24.5819 98.426 24.0784 99.0331 23.947C100.161 23.6624 101.418 23.8376 102.589 23.8157C102.568 24.5381 102.698 25.151 102.199 25.7421Z" fill="black"/>
<path d="M118.57 15.3668C119.502 15.6295 120.066 16.2862 120.717 16.9867C120.803 16.9648 120.869 16.9429 120.955 16.9429C121.758 16.1767 122.668 15.5857 123.753 15.3668C125.379 14.9946 127.33 15.1698 128.523 16.4832C129.651 17.6872 129.824 19.2415 129.889 20.8395C129.911 23.8167 129.933 26.7938 129.781 29.771C128.415 29.771 127.027 29.8148 125.661 29.7272C125.639 26.9033 125.661 24.1012 125.661 21.2773C125.661 20.5768 125.574 19.8325 125.097 19.2852C124.468 18.5191 123.102 18.541 122.452 19.2852C121.996 19.7012 121.736 20.2265 121.736 20.8395C121.714 23.7948 121.758 26.7719 121.714 29.7272C120.348 29.771 118.96 29.771 117.573 29.7272C117.551 26.9033 117.573 24.0794 117.573 21.2554C117.529 20.3579 117.269 19.2634 116.38 18.8693C115.122 18.3439 113.669 19.2415 113.648 20.6425C113.604 23.6634 113.648 26.6844 113.626 29.7272C112.216 29.8148 110.785 29.7929 109.354 29.7491C109.332 24.9988 109.332 20.2266 109.354 15.4762C110.655 15.4105 111.956 15.4324 113.257 15.4543C113.257 15.9578 113.279 16.4613 113.301 16.9648C113.734 16.7021 114.125 16.3956 114.515 16.0892C115.621 15.1697 117.226 14.9946 118.57 15.3668Z" fill="black"/>
<path d="M157.884 23.9473C158.361 21.999 158.187 19.9412 157.146 18.2119C155.954 16.1322 153.438 14.9939 151.096 15.1909C149.167 15.3223 147.323 16.1979 146.131 17.7521C144.786 19.394 144.396 21.5393 144.613 23.6189C144.765 25.2388 145.459 26.8369 146.63 27.9533C147.931 29.2449 149.73 29.8578 151.552 29.9235C153.308 29.9892 155.173 29.7265 156.669 28.7852C156.648 28.5882 156.626 28.413 156.583 28.216C156.192 27.3623 155.867 26.4866 155.477 25.6548C154.067 26.2896 152.463 26.9025 150.901 26.4209C149.752 26.1145 148.95 25.3483 148.516 24.2538C148.473 24.1662 148.408 24.0786 148.364 23.9692C151.509 23.8378 154.696 24.0786 157.884 23.9473ZM148.278 21.2985C148.451 20.6855 148.624 20.1164 149.058 19.6348C150.077 18.3651 152.094 18.0805 153.352 19.1751C154.002 19.7442 154.176 20.4885 154.284 21.3204C152.289 21.2985 150.272 21.3204 148.278 21.2985Z" fill="black"/>
<path d="M186.312 18.2999C185.792 17.4462 185.055 16.6581 184.187 16.1327C181.975 14.7755 178.94 14.9068 176.771 16.3298C175.535 17.0959 174.646 18.3875 174.126 19.7447C173.605 21.0144 173.649 22.5468 173.757 23.8821C174.017 25.8304 175.08 27.7568 176.793 28.7857C179.395 30.4056 183.06 30.2524 185.748 28.917C185.662 27.8006 185.011 26.7061 184.599 25.6772C183.298 26.2682 181.607 26.9031 180.176 26.4652C178.94 26.2026 177.92 25.2175 177.573 23.9916C180.718 23.9259 183.862 24.0135 187.028 23.9916C187.44 22.1308 187.31 19.9636 186.312 18.2999ZM177.508 21.299C177.617 19.9418 178.593 19.0661 179.764 18.5845C180.739 18.4532 181.65 18.4532 182.431 19.1537C183.125 19.701 183.276 20.4671 183.385 21.299C181.433 21.299 179.46 21.3209 177.508 21.299Z" fill="black"/>
<path d="M158.665 15.4538C160.096 15.3662 161.571 15.41 163.002 15.4538C163.956 18.5842 165.019 21.6489 165.777 24.8231C165.886 24.845 165.994 24.845 166.103 24.8669C166.97 21.6927 167.946 18.5185 168.987 15.41C170.44 15.3881 171.871 15.3881 173.324 15.41C173.302 15.607 173.259 15.804 173.237 16.001C171.437 20.5325 169.746 25.1295 167.968 29.661C166.645 29.7704 165.322 29.7266 163.999 29.7047C163.717 29.0918 163.457 28.457 163.219 27.8002C161.809 24.1226 160.421 20.4449 158.99 16.7891C158.839 16.3732 158.708 15.9135 158.665 15.4538Z" fill="black"/>
<path d="M6.39688 30.7124C6.39688 33.4925 6.41857 36.2508 6.39688 39.0091C4.27182 38.9653 2.12507 39.1185 0.0216845 38.9215C1.66408e-07 36.207 -0.0216845 33.4707 0.0433685 30.7562C2.14675 30.6905 4.27182 30.7343 6.39688 30.7124Z" fill="#403C91"/>
</svg>
