<svg version="1.1" id="Layer_1" xmlns="http://www.w3.org/2000/svg" xmlns:xlink="http://www.w3.org/1999/xlink" x="0px" y="0px"
	 width="100%" viewBox="0 0 688 689" enable-background="new 0 0 688 689" xml:space="preserve">
<path fill="#00000000" opacity="1.000000" stroke="none" 
	d="
M307.000000,690.000000 
	C204.666672,690.000000 102.833336,690.000000 1.000000,690.000000 
	C1.000000,460.333344 1.000000,230.666672 1.000000,1.000000 
	C230.333328,1.000000 459.666656,1.000000 689.000000,1.000000 
	C689.000000,230.666672 689.000000,460.333344 689.000000,690.000000 
	C561.833313,690.000000 434.666656,690.000000 307.000000,690.000000 
M333.034515,403.996613 
	C333.034515,403.996613 333.166748,404.004333 332.975128,403.468628 
	C332.666748,403.265991 332.358398,403.063354 332.025391,402.931488 
	C332.025391,402.931488 332.097015,402.909485 331.844482,402.304596 
	C331.217255,402.144043 330.590057,401.983490 329.982330,401.986847 
	C329.982330,401.986847 330.146240,401.967560 329.804108,401.272766 
	C323.575806,398.317383 317.306488,397.425995 310.316254,401.205627 
	C308.592224,402.120605 306.571228,402.721436 305.204010,404.013855 
	C302.051727,406.993683 299.476135,405.965149 296.933167,402.682526 
	C296.275146,402.401276 295.617157,402.120026 294.967224,402.015656 
	C294.967224,402.015656 295.144196,402.008972 294.897095,401.373108 
	C294.253418,401.192200 293.609772,401.011292 292.977173,400.997437 
	C292.977173,400.997437 293.144226,400.986908 292.778748,400.251465 
	C286.736389,398.280212 280.756805,397.933716 274.279755,401.219879 
	C271.217896,404.316437 268.338623,405.904297 264.393127,402.011108 
	C260.689362,398.356476 256.666992,399.976685 252.494934,403.008301 
	C252.279556,403.328918 252.064163,403.649506 251.942764,403.967346 
	C251.942764,403.967346 251.937347,403.873474 251.217239,404.255920 
	C250.807602,405.957092 250.053284,407.656097 250.042404,409.359802 
	C249.948395,424.069000 249.917786,438.779816 250.075348,453.487885 
	C250.095612,455.378723 251.299927,457.256866 251.961838,459.021454 
	C251.961838,459.021454 251.842331,459.017151 252.053818,459.576935 
	C252.382401,459.793945 252.710999,460.010956 253.316193,460.811829 
	C261.295258,464.887390 266.824799,463.611237 269.779877,455.736786 
	C269.912689,444.134094 270.045471,432.531403 270.010529,420.959564 
	C270.010529,420.959564 270.040771,421.127411 270.685699,420.847504 
	C270.736084,420.166107 270.786438,419.484741 271.362457,418.289886 
	C278.377197,414.156311 280.572083,414.741364 286.083099,423.137146 
	C286.054230,432.265808 285.984039,441.394745 286.037506,450.522919 
	C286.046326,452.032532 286.596039,453.539001 286.723572,455.669678 
	C286.637756,460.319275 289.945679,462.274353 293.584473,462.831207 
	C298.135193,463.527649 302.593903,462.728912 304.849152,456.735382 
	C304.904968,445.197174 304.960785,433.658966 305.663879,421.796570 
	C309.404572,414.239594 315.400604,413.553314 321.014618,420.946838 
	C321.005859,430.654053 320.962372,440.361511 321.028870,450.068207 
	C321.037964,451.397614 321.594818,452.723297 321.965607,454.815186 
	C322.287689,455.905975 322.609741,456.996796 322.959625,458.018250 
	C322.959625,458.018250 322.890594,458.046783 323.079865,458.513977 
	C323.354340,458.690277 323.628784,458.866577 324.193634,459.710449 
	C329.158203,464.712646 334.294312,464.512115 339.778137,458.780731 
	C340.189270,457.608704 340.949951,456.439026 340.957855,455.264282 
	C341.043762,442.503357 341.167908,429.738007 340.873993,416.983276 
	C340.818176,414.560852 338.979126,412.179474 337.726898,409.217834 
	C336.433563,407.932251 335.140228,406.646698 333.937317,404.709076 
	C333.639343,404.427521 333.341400,404.145996 333.034515,403.996613 
M293.969116,238.969345 
	C293.969116,238.969345 293.967773,238.883591 293.439880,239.043976 
	C293.255981,239.349365 293.072083,239.654755 292.963196,239.961945 
	C292.963196,239.961945 292.961823,239.886948 292.436371,240.046356 
	C292.253754,240.350754 292.071136,240.655151 291.961365,240.993423 
	C291.961365,240.993423 291.923584,240.922501 291.386169,241.080261 
	C291.152832,241.551544 290.919525,242.022827 290.449677,242.539612 
	C290.449677,242.539612 290.452332,242.780472 289.822357,242.791672 
	C289.511169,243.516190 289.199982,244.240707 288.958527,244.981781 
	C288.958527,244.981781 288.934326,244.914307 288.321777,245.143265 
	C288.169281,245.768555 288.016785,246.393845 288.001617,247.011673 
	C288.001617,247.011673 287.994690,246.874344 287.460144,247.032928 
	C287.271973,247.339264 287.083832,247.645599 286.970306,247.993866 
	C286.970306,247.993866 286.925659,247.920807 286.319885,248.144623 
	C286.169128,248.761887 286.018372,249.379166 285.938416,249.992584 
	C285.938416,249.992584 285.923828,249.923203 285.247894,250.221802 
	C283.150696,255.822815 278.856842,261.238922 283.173096,266.572510 
	C282.035706,269.763763 281.100922,272.386505 279.832062,275.656769 
	C278.867462,278.076019 277.902893,280.495270 276.246124,283.256165 
	C271.943817,291.869904 274.205475,300.040253 277.937378,308.008240 
	C277.937378,308.008240 277.833282,307.998138 277.979919,308.640961 
	C278.301208,309.136627 278.622498,309.632294 278.957245,310.000427 
	C278.957245,310.000427 278.829529,309.988342 278.978973,310.632050 
	C279.299316,311.129608 279.619690,311.627197 279.957764,311.989685 
	C279.957764,311.989685 279.822510,311.973114 279.977814,312.605408 
	C280.283936,313.097900 280.590088,313.590393 280.950623,314.038666 
	C280.950623,314.038666 280.924225,314.103577 280.989471,314.830444 
	C281.413757,316.308197 282.623535,318.160309 282.128113,319.199707 
	C279.823334,324.035095 281.441742,328.070312 283.951538,332.011078 
	C283.951538,332.011078 283.869659,332.002930 283.980530,332.738617 
	C284.630524,334.186279 285.280518,335.633942 285.959259,337.014587 
	C285.959259,337.014587 285.890137,337.037872 286.056641,337.575745 
	C286.373230,337.755280 286.689819,337.934845 287.013184,337.973694 
	C287.013184,337.973694 286.872559,337.965820 287.007629,338.625000 
	C287.332855,339.121948 287.658051,339.618866 287.993866,339.988770 
	C287.993866,339.988770 287.866852,339.977936 287.984955,340.627777 
	C288.306519,341.117981 288.628082,341.608154 288.957031,342.016541 
	C288.957031,342.016541 288.875092,342.011047 288.982727,342.669952 
	C289.625946,343.468201 290.269135,344.266449 290.965088,344.989685 
	C290.965088,344.989685 290.889435,345.041748 291.049469,345.568726 
	C291.355682,345.751373 291.661865,345.934021 291.968689,346.032806 
	C291.968689,346.032806 291.884796,346.034058 292.046906,346.564789 
	C292.355042,346.749298 292.663177,346.933777 292.971893,347.029266 
	C292.971893,347.029266 292.882874,347.030426 293.046600,347.564209 
	C293.356781,347.749695 293.666931,347.935211 293.977600,348.022797 
	C293.977600,348.022797 293.879669,348.023621 294.043884,348.559723 
	C294.354736,348.746613 294.665588,348.933502 294.977325,349.022156 
	C294.977325,349.022156 294.879120,349.022614 295.041046,349.555389 
	C295.348846,349.741669 295.656616,349.927948 295.965942,350.031372 
	C295.965942,350.031372 295.883026,350.031708 296.043060,350.559174 
	C296.348053,350.742950 296.653015,350.926727 297.003143,351.035614 
	C297.003143,351.035614 296.930176,351.083771 297.154663,351.692535 
	C297.776794,351.840698 298.398895,351.988861 299.012451,351.999451 
	C299.012451,351.999451 298.874847,352.007660 299.035522,352.544800 
	C299.344147,352.733704 299.652771,352.922607 299.987274,353.041687 
	C299.987274,353.041687 299.919525,353.072601 300.147461,353.683197 
	C300.771393,353.834045 301.395294,353.984924 302.006897,354.019287 
	C302.006897,354.019287 301.890472,354.032043 302.120941,354.649963 
	C302.749878,354.796692 303.378845,354.943451 304.058075,355.135864 
	C304.058075,355.135864 304.107819,355.089569 303.875854,355.178406 
	C303.875854,355.178406 303.831543,355.045624 304.364929,355.837006 
	C313.475800,360.343292 323.185669,360.557190 333.706299,359.698914 
	C334.838379,359.145203 335.970428,358.591492 337.016235,358.032745 
	C337.016235,358.032745 337.012695,358.119110 337.837219,358.012024 
	C338.887146,357.630402 339.937073,357.248810 340.987000,356.867188 
	C340.355103,355.892548 339.723206,354.917908 339.014069,353.983856 
	C339.014069,353.983856 339.080078,353.926331 338.856018,353.319977 
	C338.238190,353.169006 337.620361,353.018036 336.999054,352.935699 
	C336.999054,352.935699 337.065460,352.917999 337.237518,352.243347 
	C338.479370,351.873779 339.721222,351.504211 340.959900,351.038910 
	C340.959900,351.038910 340.864227,351.044342 341.122955,351.655182 
	C341.752472,351.826355 342.381958,351.997528 342.998627,352.041992 
	C342.998627,352.041992 342.872070,352.056213 343.219788,352.750641 
	C349.977264,355.749664 356.936554,355.764526 364.782196,354.031006 
	C374.140411,352.097321 381.034760,346.461884 387.427582,339.023224 
	C387.641235,338.718018 387.854858,338.412811 388.033966,338.023193 
	C388.033966,338.023193 388.091217,338.094574 388.697174,337.842590 
	C388.857330,337.214417 389.017487,336.586273 389.008270,335.977631 
	C389.008270,335.977631 389.027496,336.147064 389.643494,335.886597 
	C389.818298,335.253784 389.993103,334.620941 390.034821,334.000275 
	C390.034821,334.000275 390.048187,334.133240 390.702545,333.830658 
	C393.191711,331.221985 395.680878,328.613342 398.768951,325.752350 
	C400.862701,323.538330 402.956482,321.324310 405.578033,318.945038 
	C405.759033,318.636047 405.940063,318.327087 406.030579,318.020111 
	C406.030579,318.020111 406.034058,318.110535 406.665161,317.879883 
	C407.148651,316.929382 407.632172,315.978882 408.045776,315.027100 
	C408.045776,315.027100 408.054657,315.096436 408.668549,314.866180 
	C408.823975,314.240845 408.979401,313.615540 409.027405,313.000488 
	C409.027405,313.000488 409.038574,313.107849 409.739594,312.816681 
	C411.097382,307.853088 412.455139,302.889465 414.001648,296.582764 
	C413.603912,294.434448 413.206177,292.286102 412.861206,289.725403 
	C413.354492,283.508759 412.954895,277.548370 408.016083,273.007172 
	C408.016083,273.007172 408.135956,273.019043 408.017822,272.376892 
	C407.702789,271.891418 407.387726,271.405914 407.040192,270.988495 
	C407.040192,270.988495 407.110260,270.960602 406.944702,270.424835 
	C406.630951,270.241486 406.317230,270.058136 406.004150,269.994995 
	C406.004150,269.994995 406.124298,269.994049 405.955109,269.443176 
	C405.632690,269.257599 405.310272,269.072021 404.979614,269.031830 
	C404.979614,269.031830 405.124969,269.041626 404.998444,268.395111 
	C404.688965,267.902710 404.379486,267.410339 404.049103,266.984344 
	C404.049103,266.984344 404.117340,266.970612 403.952423,266.434387 
	C403.640320,266.248596 403.328186,266.062805 403.007385,266.007050 
	C403.007385,266.007050 403.137421,266.015564 403.019379,265.382538 
	C402.713135,264.904327 402.406921,264.426117 402.089935,263.910248 
	C402.089935,263.910248 402.052277,263.899445 401.834381,263.295135 
	C401.216309,263.151123 400.598206,263.007141 399.989868,262.989746 
	C399.989868,262.989746 400.116486,262.979797 400.014160,262.222687 
	C399.149506,261.751038 398.333679,261.122864 397.411621,260.835388 
	C393.761444,259.697266 391.560303,257.866760 390.657257,253.606873 
	C389.922760,250.142059 387.035645,247.133560 385.069733,244.002838 
	C385.069733,244.002838 385.140900,243.953110 384.946991,243.423019 
	C384.634644,243.227570 384.322327,243.032135 384.010895,242.913071 
	C384.010895,242.913071 384.087158,242.909195 383.878845,242.340363 
	C383.304352,242.225189 382.729889,242.110031 381.900238,241.449051 
	C381.544983,240.969437 381.189728,240.489822 380.948761,239.465179 
	C380.649200,239.266693 380.349670,239.068207 380.044037,238.988541 
	C380.044037,238.988541 380.162933,238.992920 379.968689,238.457565 
	C379.658508,238.256165 379.348358,238.054749 379.034668,237.978806 
	C379.034668,237.978806 379.160156,237.980728 378.967682,237.454666 
	C378.662598,237.256836 378.357544,237.059006 378.013733,236.933853 
	C378.013733,236.933853 378.090118,236.903076 377.849304,236.293655 
	C376.919983,235.821899 375.990692,235.350143 375.023621,234.957809 
	C375.023621,234.957809 375.098633,234.911911 374.845428,234.307190 
	C374.218536,234.145721 373.591644,233.984253 372.983185,233.978256 
	C372.983185,233.978256 373.138611,233.959534 372.879028,233.348114 
	C372.249176,233.176041 371.619324,233.003967 371.001221,232.948166 
	C371.001221,232.948166 371.117279,232.934723 370.787659,232.228409 
	C368.530090,231.874832 366.272522,231.521255 363.174622,231.011932 
	C358.786407,230.730179 354.398224,230.448410 349.182709,230.002960 
	C344.548615,230.180420 339.658508,234.065353 335.425232,229.126709 
	C335.425232,229.126709 335.505737,229.092316 334.948029,228.436218 
	C327.206177,226.205917 319.506409,225.771118 312.019073,228.991333 
	C312.019073,228.991333 312.034546,228.864136 311.260925,228.999817 
	C309.473297,229.651550 307.685638,230.303284 305.994110,230.965363 
	C305.994110,230.965363 306.002655,230.869080 305.348419,230.983353 
	C304.860504,231.315125 304.372589,231.646912 304.006195,231.988617 
	C304.006195,231.988617 304.015869,231.867050 303.364288,231.982635 
	C302.874664,232.307800 302.385071,232.632965 302.002991,232.971146 
	C302.002991,232.971146 302.014771,232.863449 301.375427,232.981857 
	C300.892151,233.295135 300.408875,233.608398 299.997375,233.964081 
	C299.997375,233.964081 299.959076,233.890015 299.429138,234.051636 
	C299.245911,234.360260 299.062683,234.668884 298.969452,234.977722 
	C298.969452,234.977722 298.967407,234.887756 298.339905,234.983627 
	C297.815491,235.475906 297.291046,235.968170 296.541290,236.459991 
	C296.541290,236.459991 296.498505,236.681244 295.935486,236.655899 
	C295.597626,237.078690 295.259766,237.501480 294.992706,237.961288 
	C294.992706,237.961288 294.959503,237.888626 294.432190,238.049072 
	C294.249268,238.355408 294.066315,238.661743 293.969116,238.969345 
M236.963638,446.453827 
	C236.650681,446.262756 236.337723,446.071686 236.019028,445.949249 
	C236.019028,445.949249 236.086517,445.935638 235.851974,445.316101 
	C234.381058,445.268036 232.910156,445.219971 230.332672,445.001923 
	C221.278778,445.001923 212.224884,445.001923 202.285278,445.001923 
	C203.270966,443.115509 203.648773,442.086639 204.274261,441.240997 
	C214.800247,427.010742 225.428833,412.855835 235.878784,398.570190 
	C241.639374,390.695099 238.756866,385.615204 230.848602,381.385529 
	C215.585327,381.262573 200.322098,381.128510 185.058594,381.063721 
	C184.534653,381.061493 184.007782,381.752930 183.553574,382.152039 
	C183.553574,382.152039 183.590591,382.083649 182.800323,382.018311 
	C182.170212,382.324707 181.540085,382.631073 180.977432,382.951447 
	C180.977432,382.951447 180.971237,382.882812 180.435211,383.047699 
	C180.249268,383.359589 180.063324,383.671448 179.980652,383.984100 
	C179.980652,383.984100 179.980362,383.880798 179.174500,383.991028 
	C175.765259,388.374481 176.021606,392.869843 179.984955,397.016693 
	C179.984955,397.016693 179.936829,397.089630 180.158798,397.696716 
	C180.779190,397.843689 181.399582,397.990631 182.007309,398.016510 
	C182.007309,398.016510 181.886215,398.029480 182.201981,398.731140 
	C183.690399,398.744781 185.178818,398.758392 187.630875,398.956696 
	C195.357010,398.964630 203.083481,398.945984 210.808365,399.048126 
	C211.259811,399.054108 211.698318,400.036926 211.955048,401.282349 
	C200.424957,416.553528 188.763107,431.727875 177.432556,447.145660 
	C173.168945,452.947266 178.267624,461.635651 186.193069,462.715668 
	C200.796265,462.798553 215.399460,462.887360 230.002777,462.928467 
	C230.350906,462.929443 230.700546,462.397156 231.809464,462.012909 
	C232.932587,461.673096 234.055710,461.333282 235.792694,460.976898 
	C236.230484,460.663147 236.668274,460.349396 237.011200,460.029938 
	C237.011200,460.029938 237.006714,460.124878 237.553436,459.959106 
	C237.743729,459.642456 237.934006,459.325836 238.012939,459.010529 
	C238.012939,459.010529 238.014969,459.121887 238.759644,458.796600 
	C240.348923,455.031067 241.604614,451.288391 238.010559,447.991791 
	C238.010559,447.991791 238.124969,447.993164 237.957779,447.444519 
	C237.639252,447.254456 237.320724,447.064362 237.002014,446.997864 
	C237.002014,446.997864 237.125565,446.997864 236.963638,446.453827 
M439.009430,460.003021 
	C439.009430,460.003021 439.102539,460.078857 439.731110,459.891205 
	C439.865417,459.262482 439.999695,458.633728 440.043549,458.017487 
	C440.043549,458.017487 440.057892,458.107635 440.826324,457.773163 
	C440.879059,456.663177 440.931763,455.553162 440.905487,454.455444 
	C440.905487,454.455444 440.913574,454.535004 441.609131,453.913269 
	C441.777893,443.954773 441.946655,433.996277 442.754120,423.730865 
	C445.948853,421.823212 449.106842,419.850311 452.348175,418.025360 
	C455.939240,416.003540 461.230865,416.510559 462.074005,410.568176 
	C462.744171,405.844910 460.529480,402.220032 456.936066,400.898712 
	C453.823517,399.754181 449.661835,400.668884 446.196350,401.568726 
	C444.040466,402.128540 442.317230,404.354492 440.400238,405.832306 
	C436.385834,400.250427 432.989105,399.167419 426.390656,401.003143 
	C425.907593,401.295715 425.424500,401.588287 425.027679,401.906952 
	C425.027679,401.906952 424.953735,401.854034 424.435028,402.044006 
	C424.241486,402.347137 424.047943,402.650238 423.926422,402.991486 
	C423.926422,402.991486 423.897217,402.915375 423.299255,403.159607 
	C423.140533,403.778778 422.981812,404.397919 422.948090,405.000885 
	C422.948090,405.000885 422.930206,404.876129 422.168213,405.324005 
	C422.108337,422.061768 422.010040,438.799652 422.075958,455.536926 
	C422.080292,456.638428 423.338989,457.735046 424.596344,459.207031 
	C426.816498,464.510834 431.554077,462.098907 435.671326,462.582062 
	C435.877838,462.399475 435.957458,462.172729 435.856750,462.024841 
	C435.856750,462.024841 435.977295,462.083740 436.638611,462.038208 
	C437.118927,461.725372 437.599274,461.412537 438.005737,461.021667 
	C438.005737,461.021667 438.054779,461.117340 438.600067,461.000488 
	C438.771240,460.687988 438.942413,460.375519 439.009430,460.003021 
M476.049042,459.568115 
	C476.378601,459.787872 476.708191,460.007629 477.324799,460.897034 
	C483.800201,466.299835 492.974213,461.502289 492.887268,453.853546 
	C492.913879,441.969635 492.940460,430.085724 493.721649,418.041901 
	C496.906799,417.334442 500.091980,416.626984 504.040100,415.960449 
	C509.022491,413.214325 509.466095,407.629639 505.033783,402.970276 
	C505.033783,402.970276 505.112396,402.923279 504.768738,402.207581 
	C501.667480,402.035492 498.566254,401.863434 494.278503,401.065948 
	C493.839691,400.980377 493.400879,400.894806 492.902191,399.979004 
	C492.959747,395.187683 493.415771,390.358276 492.962585,385.615753 
	C492.511475,380.894623 489.371399,379.338318 484.208527,380.975067 
	C483.454773,380.909790 482.701019,380.844543 481.637115,380.205719 
	C480.712982,380.456329 479.788818,380.706909 478.967377,380.963440 
	C478.967377,380.963440 478.971252,380.860657 478.264343,380.982941 
	C477.462921,381.979401 476.661530,382.975830 475.979248,383.968231 
	C475.979248,383.968231 475.973663,383.849152 475.245361,384.228516 
	C474.827606,387.841034 474.463531,391.460876 473.971069,395.063202 
	C473.697845,397.062042 473.210205,399.031586 472.066772,400.942566 
	C466.446777,401.241852 463.686005,405.254272 463.329041,409.834808 
	C463.065247,413.219940 465.489868,416.727814 470.348877,417.851074 
	C471.483398,417.972076 472.617889,418.093079 473.992065,418.239655 
	C473.992065,429.752167 473.956299,441.194946 474.035370,452.636963 
	C474.045776,454.142822 474.643188,455.644623 474.983459,456.996338 
	C474.983459,456.996338 474.831451,456.982056 474.979980,457.635620 
	C475.308960,458.138306 475.637939,458.640991 475.972565,459.009064 
	C475.972565,459.009064 475.837921,459.004456 476.049042,459.568115 
M388.037201,401.943665 
	C388.037201,401.943665 388.109131,401.921478 387.855103,401.316132 
	C387.228577,401.152313 386.602051,400.988525 385.992523,400.968628 
	C385.992523,400.968628 386.136322,400.950745 385.756744,400.228790 
	C379.806213,398.416962 373.903656,397.740540 367.799622,401.587189 
	C361.942841,403.949432 357.175293,407.788757 354.304718,413.345337 
	C347.936371,425.672485 347.989655,438.117462 354.732269,450.380768 
	C360.199310,460.324036 372.234711,465.680634 382.929565,462.492981 
	C386.268585,461.497772 389.226196,459.222839 392.336761,457.545410 
	C395.089600,463.888031 402.515076,465.272186 407.758942,460.009308 
	C408.198822,459.708069 408.638702,459.406830 409.052063,459.047119 
	C409.052063,459.047119 409.106842,459.080658 409.817078,458.704163 
	C410.215271,456.830597 410.946259,454.959229 410.958801,453.083069 
	C411.055023,438.677765 411.037201,424.271454 410.969513,409.865814 
	C410.963226,408.529938 410.365326,407.196777 410.027008,406.007904 
	C410.027008,406.007904 410.172638,406.022339 410.003998,405.378357 
	C409.686981,404.875641 409.369965,404.372894 409.051208,403.944977 
	C409.051208,403.944977 409.126007,403.943634 408.888153,403.358215 
	C408.493500,403.292572 408.098816,403.226929 407.210907,402.653412 
	C401.341583,398.350983 396.509369,399.229889 391.461334,405.617706 
	C390.590271,404.896088 389.721069,404.175995 388.932739,402.780365 
	C388.642700,402.477875 388.352692,402.175354 388.037201,401.943665 
z"/>
<path fill="#CD2B1D" opacity="1.000000" stroke="none" 
	d="
M350.010010,230.166656 
	C354.398224,230.448410 358.786407,230.730179 363.793640,231.414673 
	C366.647522,232.189850 368.882416,232.562286 371.117279,232.934723 
	C371.117279,232.934723 371.001221,232.948166 370.924805,233.319000 
	C371.611786,233.779724 372.375214,233.869629 373.138611,233.959534 
	C373.138611,233.959534 372.983185,233.978256 372.979980,234.368256 
	C373.684082,234.809464 374.391357,234.860687 375.098633,234.911911 
	C375.098633,234.911911 375.023621,234.957809 374.718872,235.280334 
	C375.639465,236.036270 376.864807,236.469681 378.090118,236.903076 
	C378.090118,236.903076 378.013733,236.933853 377.730530,237.306488 
	C378.018280,237.779663 378.589203,237.880203 379.160156,237.980728 
	C379.160156,237.980728 379.034668,237.978806 378.799622,238.317001 
	C379.097382,238.767761 379.630157,238.880341 380.162933,238.992920 
	C380.162933,238.992920 380.044037,238.988541 379.828888,239.204941 
	C380.020660,239.617630 380.427551,239.813934 380.834473,240.010223 
	C381.189728,240.489822 381.544983,240.969437 382.109741,242.116699 
	C382.908569,242.825974 383.497864,242.867584 384.087158,242.909195 
	C384.087158,242.909195 384.010895,242.913071 383.864380,243.337051 
	C384.192200,243.825058 384.666565,243.889084 385.140900,243.953110 
	C385.140900,243.953110 385.069733,244.002838 384.686188,244.132416 
	C390.427582,252.901230 392.363953,262.657379 391.931274,273.029633 
	C391.081818,293.390778 395.530579,313.915314 390.048187,334.133240 
	C390.048187,334.133240 390.034821,334.000275 389.682922,333.927917 
	C389.229828,334.619415 389.128662,335.383240 389.027496,336.147064 
	C389.027496,336.147064 389.008270,335.977631 388.626038,335.993713 
	C388.192963,336.704712 388.142090,337.399658 388.091217,338.094574 
	C388.091217,338.094574 388.033966,338.023193 387.915588,337.699402 
	C387.502594,338.017212 387.208008,338.658844 386.913422,339.300476 
	C381.034760,346.461884 374.140411,352.097321 363.944275,353.973755 
	C356.361603,353.296387 349.616852,352.676300 342.872070,352.056213 
	C342.872070,352.056213 342.998627,352.041992 343.072510,351.673248 
	C342.385651,351.217773 341.624939,351.131073 340.864227,351.044342 
	C340.864227,351.044342 340.959900,351.038910 341.170715,350.751160 
	C326.745178,342.436493 311.975098,334.639832 297.543549,326.260254 
	C292.349030,323.244080 287.984070,318.806000 283.197906,315.071381 
	C282.570374,314.581696 281.688354,314.418182 280.924225,314.103577 
	C280.924225,314.103577 280.950623,314.038666 281.379028,313.846558 
	C281.145813,313.094025 280.484161,312.533569 279.822510,311.973114 
	C279.822510,311.973114 279.957764,311.989685 280.259216,311.725220 
	C279.983643,310.969910 279.406586,310.479126 278.829529,309.988342 
	C278.829529,309.988342 278.957245,310.000427 279.253265,309.718140 
	C278.977295,308.956604 278.405273,308.477356 277.833282,307.998138 
	C277.833282,307.998138 277.937378,308.008240 278.291443,307.771973 
	C275.320007,299.519775 275.482544,291.261963 276.938324,282.914520 
	C277.902893,280.495270 278.867462,278.076019 280.311584,275.223389 
	C286.069214,270.080505 290.787872,264.451721 296.730896,260.834717 
	C314.230316,250.184372 332.215149,240.331604 350.010010,230.166656 
M370.992554,293.444580 
	C370.392975,296.882080 369.470367,300.302277 369.284760,303.761993 
	C369.099701,307.212067 367.496033,308.148163 364.358643,308.419586 
	C354.255676,309.293640 344.146057,310.207916 334.099182,311.555481 
	C330.084656,312.093933 328.230042,311.220612 326.868378,307.220856 
	C322.429993,294.184021 317.605194,281.276154 312.727112,268.395111 
	C312.157837,266.891937 310.322357,264.801331 309.083466,264.807892 
	C304.342255,264.832794 299.604950,265.603027 294.763977,266.105621 
	C295.080566,271.056915 296.421997,274.229950 301.734192,272.806274 
	C305.531189,271.788635 306.914154,273.623474 308.080719,276.958862 
	C312.629944,289.965607 317.466553,302.871735 322.183807,315.819824 
	C323.063934,318.235657 323.765259,320.134430 327.329224,319.707733 
	C340.204468,318.166290 353.135773,317.097778 366.039886,315.791565 
	C374.714203,314.913513 374.711334,314.869202 376.300171,306.366730 
	C376.757874,303.917511 377.234802,301.471283 377.648193,299.014465 
	C379.460114,288.245728 381.251923,277.473633 383.046936,266.727325 
	C376.038422,265.233276 375.862122,265.354218 374.800720,271.470581 
	C373.579010,278.510376 372.328156,285.545074 370.992554,293.444580 
M342.741302,306.746124 
	C353.262787,294.493042 363.455566,281.995758 373.211975,267.780640 
	C361.280823,267.741547 350.740601,266.844788 346.251984,279.522491 
	C345.494812,281.661072 343.800079,283.470398 342.523010,285.421692 
	C338.691772,291.275665 334.737518,297.053253 331.059052,303.001526 
	C328.754730,306.727692 329.674011,308.122070 334.044342,307.888092 
	C336.698700,307.745972 339.335815,307.281219 342.741302,306.746124 
M319.642181,274.174652 
	C321.735077,281.073090 323.827942,287.971497 326.265594,296.006317 
	C333.698273,286.947266 340.247040,278.965515 347.638428,269.956818 
	C339.366974,270.653442 332.592987,271.138184 325.841949,271.842682 
	C323.704590,272.065735 321.628418,272.875580 319.642181,274.174652 
M359.497772,304.942993 
	C361.885284,303.968170 365.791321,303.533356 366.367126,301.914246 
	C367.910797,297.573547 368.028412,292.725708 368.927399,286.619202 
	C361.491760,293.426910 355.136444,299.245544 347.677856,306.074249 
	C352.405792,305.601044 355.511414,305.290222 359.497772,304.942993 
M339.323975,324.033966 
	C336.818573,325.058380 334.108948,325.778076 331.906555,327.254486 
	C331.002777,327.860321 330.454834,330.958801 331.017181,331.441589 
	C333.161072,333.282074 335.715546,334.808685 338.362000,335.792755 
	C339.095459,336.065491 341.705719,334.027618 341.679260,333.100555 
	C341.595612,330.171936 340.670441,327.267395 339.323975,324.033966 
M368.689392,321.298950 
	C366.419891,321.696594 364.033203,321.779175 361.909698,322.569275 
	C359.065765,323.627441 357.231201,326.313110 359.516937,328.689178 
	C361.423584,330.671204 364.839264,331.201569 367.586639,332.374878 
	C368.444733,330.123260 369.530396,327.923676 370.061890,325.597443 
	C370.315552,324.487274 369.516571,323.136627 368.689392,321.298950 
z"/>
<path fill="#CD2B1E" opacity="1.000000" stroke="none" 
	d="
M253.042892,402.774231 
	C256.666992,399.976685 260.689362,398.356476 264.393127,402.011108 
	C268.338623,405.904297 271.217896,404.316437 274.897644,401.230469 
	C281.391754,401.156311 287.267975,401.071594 293.144226,400.986908 
	C293.144226,400.986908 292.977173,400.997437 292.968964,401.299622 
	C293.688568,401.737518 294.416382,401.873260 295.144196,402.008972 
	C295.144196,402.008972 294.967224,402.015656 294.978088,402.275574 
	C295.609955,402.842255 296.230957,403.149017 296.851929,403.455780 
	C299.476135,405.965149 302.051727,406.993683 305.204010,404.013855 
	C306.571228,402.721436 308.592224,402.120605 311.051208,401.146820 
	C317.906189,401.381195 324.026215,401.674377 330.146240,401.967560 
	C330.146240,401.967560 329.982330,401.986847 329.986206,402.372711 
	C330.692413,402.808868 331.394714,402.859192 332.097015,402.909485 
	C332.097015,402.909485 332.025391,402.931488 331.764221,403.277954 
	C332.057587,403.751068 332.612183,403.877686 333.166748,404.004333 
	C333.166748,404.004333 333.034515,403.996613 332.818420,404.247070 
	C333.017212,404.785370 333.432037,405.073242 333.846863,405.361145 
	C335.140228,406.646698 336.433563,407.932251 337.548157,409.679199 
	C338.211731,412.599701 339.783081,415.060974 339.775818,417.517548 
	C339.734802,431.389496 339.314941,445.260254 339.024139,459.131439 
	C334.294312,464.512115 329.158203,464.712646 324.032257,459.024048 
	C323.544128,458.240692 323.217346,458.143738 322.890594,458.046783 
	C322.890594,458.046783 322.959625,458.018250 323.256226,457.722565 
	C323.278656,456.258240 323.004547,455.089630 322.777100,453.459473 
	C322.830261,444.506805 322.961670,436.012787 322.766296,427.526276 
	C322.708435,425.013794 321.729736,422.522522 321.172974,420.021515 
	C315.400604,413.553314 309.404572,414.239594 305.039062,422.235657 
	C304.289673,434.155304 304.165039,445.635864 304.040436,457.116455 
	C302.593903,462.728912 298.135193,463.527649 293.584473,462.831207 
	C289.945679,462.274353 286.637756,460.319275 286.865784,454.889435 
	C287.004242,448.354126 287.105042,442.596466 286.964539,436.844757 
	C286.845520,431.972107 286.447357,427.106323 286.172729,422.237488 
	C280.572083,414.741364 278.377197,414.156311 270.792480,418.747559 
	C270.161926,419.845947 270.101349,420.486694 270.040771,421.127411 
	C270.040771,421.127411 270.010529,420.959564 269.651459,421.055908 
	C269.135834,430.376617 268.958984,439.600739 268.836334,448.825592 
	C268.803772,451.273834 268.937897,453.724274 268.995453,456.173706 
	C266.824799,463.611237 261.295258,464.887390 253.210144,460.103516 
	C252.683487,459.269165 252.262909,459.143158 251.842331,459.017151 
	C251.842331,459.017151 251.961838,459.021454 252.214478,458.705597 
	C252.037186,455.970337 251.220001,453.547729 251.240112,451.132080 
	C251.371277,435.378387 251.684006,419.626160 251.937347,403.873474 
	C251.937347,403.873474 251.942764,403.967346 252.282288,404.163635 
	C252.762161,403.831329 252.902527,403.302795 253.042892,402.774231 
z"/>
<path fill="#FBB410" opacity="1.000000" stroke="none" 
	d="
M235.178833,460.993469 
	C234.055710,461.333282 232.932587,461.673096 230.971497,461.941742 
	C215.329590,461.891571 200.525650,461.912598 185.721695,461.933594 
	C178.267624,461.635651 173.168945,452.947266 177.432556,447.145660 
	C188.763107,431.727875 200.424957,416.553528 212.316772,400.905243 
	C214.915146,398.756165 213.980301,398.216766 211.769882,398.251953 
	C203.402039,398.385132 195.034515,398.539795 186.320465,398.482880 
	C184.611435,398.196045 183.248825,398.112762 181.886215,398.029480 
	C181.886215,398.029480 182.007309,398.016510 181.963989,397.624023 
	C181.259399,397.184235 180.598114,397.136932 179.936829,397.089600 
	C179.936829,397.089630 179.984955,397.016693 180.339096,396.765564 
	C177.299011,392.481354 178.507080,388.188568 179.980362,383.880798 
	C179.980362,383.880798 179.980652,383.984100 180.321152,384.082031 
	C180.764847,383.747589 180.868042,383.315186 180.971237,382.882812 
	C180.971237,382.882812 180.977432,382.951447 181.253113,383.241882 
	C182.216064,383.049408 182.903320,382.566528 183.590591,382.083649 
	C183.590591,382.083649 183.553574,382.152039 184.021790,382.197357 
	C199.939209,382.265594 215.388428,382.288513 230.837631,382.311401 
	C238.756866,385.615204 241.639374,390.695099 235.878784,398.570190 
	C225.428833,412.855835 214.800247,427.010742 204.274261,441.240997 
	C203.648773,442.086639 203.270966,443.115509 202.285278,445.001923 
	C212.224884,445.001923 221.278778,445.001923 231.111374,445.207642 
	C233.288895,445.587433 234.687698,445.761536 236.086517,445.935638 
	C236.086517,445.935638 236.019028,445.949249 235.900177,446.275085 
	C236.229416,446.733215 236.677490,446.865540 237.125565,446.997864 
	C237.125565,446.997864 237.002014,446.997864 236.962860,447.291992 
	C237.324142,447.721802 237.724548,447.857483 238.124969,447.993164 
	C238.124969,447.993164 238.010559,447.991791 237.924286,448.342834 
	C237.896988,452.169891 237.955978,455.645874 238.014984,459.121887 
	C238.014969,459.121887 238.012939,459.010529 237.708832,458.944824 
	C237.272064,459.294403 237.139404,459.709656 237.006714,460.124878 
	C237.006714,460.124878 237.011200,460.029938 236.764191,459.880585 
	C236.071075,460.151978 235.624954,460.572723 235.178833,460.993469 
z"/>
<path fill="#CD2B1E" opacity="1.000000" stroke="none" 
	d="
M407.157135,460.004974 
	C402.515076,465.272186 395.089600,463.888031 392.336761,457.545410 
	C389.226196,459.222839 386.268585,461.497772 382.929565,462.492981 
	C372.234711,465.680634 360.199310,460.324036 354.732269,450.380768 
	C347.989655,438.117462 347.936371,425.672485 354.304718,413.345337 
	C357.175293,407.788757 361.942841,403.949432 368.398804,401.319702 
	C374.710754,401.018372 380.423553,400.984558 386.136322,400.950745 
	C386.136322,400.950745 385.992523,400.968628 385.959595,401.357910 
	C386.654175,401.805267 387.381653,401.863373 388.109131,401.921478 
	C388.109131,401.921478 388.037201,401.943665 387.759949,402.219604 
	C387.939087,402.815643 388.395477,403.135773 388.851868,403.455872 
	C389.721069,404.175995 390.590271,404.896088 391.461334,405.617706 
	C396.509369,399.229889 401.341583,398.350983 407.600647,403.274536 
	C408.368896,403.911621 408.747467,403.927612 409.126007,403.943634 
	C409.126007,403.943634 409.051208,403.944977 408.774231,404.244568 
	C409.055725,405.036865 409.614197,405.529602 410.172638,406.022339 
	C410.172638,406.022339 410.027008,406.007904 409.756378,406.340698 
	C409.591492,422.103638 409.724335,437.533691 409.770233,452.964050 
	C409.776276,455.002258 409.338867,457.041748 409.106842,459.080658 
	C409.106842,459.080658 409.052063,459.047119 408.893921,458.691956 
	C408.209534,458.892853 407.683319,459.448914 407.157135,460.004974 
M372.577515,443.942139 
	C375.265167,446.306885 378.031860,448.031372 381.795349,446.075928 
	C386.005737,443.888275 390.323303,441.828400 390.549469,436.224274 
	C390.670929,433.214691 390.531097,430.188965 390.392914,427.175842 
	C390.193207,422.820526 385.888916,417.729004 381.663330,417.081146 
	C376.759216,416.329193 373.044830,418.038452 370.757416,422.705200 
	C367.236664,429.888123 367.510162,436.720184 372.577515,443.942139 
z"/>
<path fill="#CD2B1D" opacity="1.000000" stroke="none" 
	d="
M469.958130,417.110687 
	C465.489868,416.727814 463.065247,413.219940 463.329041,409.834808 
	C463.686005,405.254272 466.446777,401.241852 472.894348,401.024902 
	C474.149109,400.372772 474.888428,399.664581 474.952820,398.899597 
	C475.374512,393.889648 475.650269,388.867401 475.973663,383.849152 
	C475.973663,383.849152 475.979248,383.968231 476.268738,384.151917 
	C477.362579,383.177307 478.166931,382.018982 478.971252,380.860657 
	C478.971252,380.860657 478.967377,380.963440 479.256561,381.199463 
	C480.346252,381.216766 481.146759,380.998047 481.947266,380.779297 
	C482.701019,380.844543 483.454773,380.909790 484.951050,381.009644 
	C490.369843,382.020081 491.981628,385.312469 492.239136,389.657562 
	C492.459473,393.376007 492.719543,397.092102 492.962067,400.809235 
	C493.400879,400.894806 493.839691,400.980377 494.606323,400.901855 
	C496.876648,398.803528 498.487213,398.594391 500.501373,400.974457 
	C501.463104,402.110870 503.540405,402.303253 505.112396,402.923279 
	C505.112396,402.923279 505.033783,402.970276 504.687073,403.214325 
	C507.579956,407.918732 506.818115,412.037689 503.277130,415.919495 
	C500.091980,416.626984 496.906799,417.334442 493.081909,418.185638 
	C492.571716,430.471558 492.701233,442.613708 492.830750,454.755890 
	C492.974213,461.502289 483.800201,466.299835 477.216797,460.158386 
	C476.685150,459.281311 476.261536,459.142883 475.837921,459.004456 
	C475.837921,459.004456 475.972565,459.009064 476.182129,458.709137 
	C475.871613,457.933502 475.351532,457.457764 474.831451,456.982056 
	C474.831451,456.982056 474.983459,456.996338 475.209839,456.643799 
	C475.436188,443.269287 475.436188,430.247375 475.436188,417.110687 
	C472.905853,417.110687 471.432007,417.110687 469.958130,417.110687 
z"/>
<path fill="#CD2B1D" opacity="1.000000" stroke="none" 
	d="
M435.307953,462.701965 
	C431.554077,462.098907 426.816498,464.510834 424.288757,458.608521 
	C423.658203,455.405579 423.075012,452.803131 423.055115,450.196350 
	C422.939972,435.090179 422.957520,419.982971 422.930206,404.876129 
	C422.930206,404.876129 422.948090,405.000885 423.386627,405.055481 
	C423.849182,404.378479 423.873199,403.646942 423.897217,402.915375 
	C423.897217,402.915375 423.926422,402.991486 424.349762,403.270508 
	C424.833313,402.984375 424.893524,402.419189 424.953735,401.854034 
	C424.953735,401.854034 425.027679,401.906952 425.102325,402.317108 
	C425.788330,402.206879 426.399719,401.686462 427.011078,401.166077 
	C432.989105,399.167419 436.385834,400.250427 440.400238,405.832306 
	C442.317230,404.354492 444.040466,402.128540 446.196350,401.568726 
	C449.661835,400.668884 453.823517,399.754181 456.936066,400.898712 
	C460.529480,402.220032 462.744171,405.844910 462.074005,410.568176 
	C461.230865,416.510559 455.939240,416.003540 452.348175,418.025360 
	C449.106842,419.850311 445.948853,421.823212 442.030640,424.056061 
	C441.175964,434.432495 441.044769,444.483765 440.913574,454.535004 
	C440.913574,454.535004 440.905487,454.455444 440.567871,454.659393 
	C440.172791,455.944763 440.115356,457.026215 440.057922,458.107635 
	C440.057892,458.107635 440.043549,458.017487 439.656799,458.016998 
	C439.214203,458.703949 439.158386,459.391418 439.102539,460.078857 
	C439.102539,460.078857 439.009430,460.003021 438.669128,459.842438 
	C438.237457,460.160339 438.146118,460.638855 438.054779,461.117340 
	C438.054779,461.117340 438.005737,461.021667 437.780396,460.746338 
	C437.029114,461.008575 436.503204,461.546143 435.977295,462.083740 
	C435.977295,462.083740 435.856750,462.024841 436.061951,462.201660 
	C435.947418,462.486298 435.627686,462.594116 435.307953,462.701965 
z"/>
<path fill="#FBB410" opacity="1.000000" stroke="none" 
	d="
M333.025940,359.836823 
	C323.185669,360.557190 313.475800,360.343292 304.136780,355.444397 
	C303.908600,355.051788 304.107819,355.089569 304.107819,355.089569 
	C304.107819,355.089569 304.058075,355.135864 303.973083,354.747986 
	C303.222229,354.250763 302.556366,354.141418 301.890472,354.032043 
	C301.890472,354.032043 302.006897,354.019287 301.970947,353.651855 
	C301.263184,353.213776 300.591370,353.143188 299.919525,353.072601 
	C299.919525,353.072601 299.987274,353.041687 300.158875,352.710388 
	C299.845276,352.255280 299.360046,352.131470 298.874847,352.007660 
	C298.874847,352.007660 299.012451,351.999451 298.964630,351.627258 
	C298.254608,351.197968 297.592377,351.140869 296.930176,351.083771 
	C296.930176,351.083771 297.003143,351.035614 297.194305,350.673401 
	C296.884644,350.218018 296.383850,350.124847 295.883026,350.031708 
	C295.883026,350.031708 295.965942,350.031372 296.141724,349.686951 
	C295.838043,349.235901 295.358582,349.129242 294.879120,349.022614 
	C294.879120,349.022614 294.977325,349.022156 295.100952,348.685181 
	C294.776306,348.239990 294.327972,348.131805 293.879669,348.023621 
	C293.879669,348.023621 293.977600,348.022797 294.101074,347.675415 
	C293.777313,347.228821 293.330078,347.129639 292.882874,347.030426 
	C292.882874,347.030426 292.971893,347.029266 293.122131,346.669586 
	C292.809814,346.217957 292.347321,346.126007 291.884796,346.034058 
	C291.884796,346.034058 291.968689,346.032806 292.139099,345.654968 
	C291.836151,345.198639 291.362793,345.120178 290.889435,345.041748 
	C290.889435,345.041748 290.965088,344.989685 291.319519,344.810059 
	C290.741028,343.757294 289.808044,342.884186 288.875092,342.011047 
	C288.875092,342.011047 288.957031,342.016541 289.189514,341.736450 
	C288.903625,340.963562 288.385223,340.470764 287.866852,339.977936 
	C287.866852,339.977936 287.993866,339.988770 288.085571,339.706604 
	C287.742401,338.938232 287.307465,338.452026 286.872559,337.965820 
	C286.872559,337.965820 287.013184,337.973694 287.013947,337.653412 
	C286.639862,337.234711 286.264984,337.136292 285.890137,337.037872 
	C285.890137,337.037872 285.959259,337.014587 286.271088,336.770569 
	C285.678497,335.018677 284.774078,333.510803 283.869659,332.002930 
	C283.869659,332.002930 283.951538,332.011078 284.238892,331.723755 
	C284.032776,329.050323 283.539307,326.664215 283.084015,324.462799 
	C299.625763,333.582855 315.999542,342.641388 332.423157,351.608582 
	C333.798828,352.359680 335.510101,352.496063 337.065460,352.918030 
	C337.065460,352.917999 336.999054,352.935699 336.963745,353.352539 
	C337.645660,353.821686 338.362885,353.874023 339.080078,353.926331 
	C339.080078,353.926331 339.014069,353.983856 338.745483,354.118317 
	C337.988861,355.541565 337.500793,356.830353 337.012695,358.119110 
	C337.012695,358.119110 337.016235,358.032745 336.729675,357.846802 
	C335.304077,358.386169 334.165009,359.111511 333.025940,359.836823 
z"/>
<path fill="#FBB410" opacity="1.000000" stroke="none" 
	d="
M412.808441,290.137787 
	C413.206177,292.286102 413.603912,294.434448 413.634644,297.326782 
	C411.857941,303.083160 410.448273,308.095520 409.038574,313.107849 
	C409.038574,313.107849 409.027405,313.000488 408.670959,313.003113 
	C408.227875,313.702667 408.141266,314.399536 408.054657,315.096436 
	C408.054657,315.096436 408.045776,315.027100 407.710571,314.888947 
	C406.928284,315.870697 406.481171,316.990631 406.034058,318.110535 
	C406.034058,318.110535 406.030579,318.020111 405.729553,317.924377 
	C405.302429,318.255890 405.176331,318.683075 405.050232,319.110291 
	C402.956482,321.324310 400.862701,323.538330 398.289337,325.524963 
	C397.905609,321.462280 398.077545,317.627106 398.084320,313.791656 
	C398.114502,296.728088 398.097412,279.664429 398.097412,262.698181 
	C398.277222,262.723267 399.196869,262.851532 400.116486,262.979797 
	C400.116486,262.979797 399.989868,262.989746 400.036865,263.402466 
	C400.739990,263.843262 401.396118,263.871338 402.052277,263.899445 
	C402.052277,263.899445 402.089935,263.910248 401.642883,264.115509 
	C401.843048,264.885712 402.490234,265.450623 403.137421,266.015564 
	C403.137421,266.015564 403.007385,266.007050 402.916077,266.334320 
	C403.255646,266.764587 403.686493,266.867584 404.117340,266.970612 
	C404.117340,266.970612 404.049103,266.984344 403.753662,267.217224 
	C404.013794,267.980621 404.569366,268.511139 405.124969,269.041626 
	C405.124969,269.041626 404.979614,269.031830 405.004517,269.298553 
	C405.394348,269.708221 405.759338,269.851135 406.124298,269.994049 
	C406.124298,269.994049 406.004150,269.994995 405.953552,270.338989 
	C406.305420,270.775513 406.707825,270.868042 407.110260,270.960602 
	C407.110260,270.960602 407.040192,270.988495 406.722656,271.227631 
	C406.982056,271.984192 407.558990,272.501617 408.135956,273.019043 
	C408.135956,273.019043 408.016083,273.007172 407.870544,273.317749 
	C409.419464,279.131470 411.113953,284.634613 412.808441,290.137787 
z"/>
<path fill="#FBB410" opacity="1.000000" stroke="none" 
	d="
M335.505737,229.092316 
	C335.505737,229.092316 335.425232,229.126709 335.391968,229.431992 
	C335.246429,230.145874 335.266571,230.771255 335.003082,230.932083 
	C317.779449,241.445984 300.532898,251.922287 283.067566,262.536072 
	C284.039520,258.244110 284.981659,254.083664 285.923828,249.923203 
	C285.923828,249.923203 285.938416,249.992584 286.355927,250.036026 
	C286.824188,249.359909 286.874939,248.640366 286.925659,247.920807 
	C286.925659,247.920807 286.970306,247.993866 287.292725,248.203979 
	C287.741669,247.900833 287.868164,247.387589 287.994690,246.874344 
	C287.994690,246.874344 288.001617,247.011673 288.349426,246.974091 
	C288.776245,246.262436 288.855286,245.588379 288.934326,244.914307 
	C288.934326,244.914307 288.958527,244.981781 289.301361,245.147446 
	C289.913574,244.468903 290.182953,243.624680 290.452332,242.780472 
	C290.452332,242.780472 290.449677,242.539612 290.979034,242.721069 
	C291.646790,242.242523 291.785187,241.582504 291.923584,240.922501 
	C291.923584,240.922501 291.961365,240.993423 292.337769,241.188385 
	C292.796753,240.884537 292.879303,240.385742 292.961853,239.886948 
	C292.961823,239.886948 292.963196,239.961945 293.327087,240.164932 
	C293.783234,239.873138 293.875488,239.378372 293.967773,238.883591 
	C293.967773,238.883591 293.969116,238.969345 294.343445,239.138580 
	C294.798370,238.834763 294.878937,238.361694 294.959503,237.888626 
	C294.959503,237.888626 294.992706,237.961288 295.240356,238.298187 
	C295.824829,237.983810 296.161682,237.332535 296.498505,236.681244 
	C296.498505,236.681244 296.541290,236.459991 296.952942,236.731583 
	C297.898834,236.298035 298.433136,235.592911 298.967407,234.887756 
	C298.967407,234.887756 298.969452,234.977722 299.341309,235.106140 
	C299.795135,234.786377 299.877106,234.338196 299.959045,233.890015 
	C299.959076,233.890015 299.997375,233.964081 300.221527,234.302994 
	C300.968689,234.049088 301.491730,233.456268 302.014771,232.863449 
	C302.014771,232.863449 302.002991,232.971146 302.287903,233.167236 
	C303.053864,232.864578 303.534851,232.365814 304.015869,231.867050 
	C304.015869,231.867050 304.006195,231.988617 304.313782,232.105148 
	C305.081818,231.770813 305.542236,231.319946 306.002655,230.869080 
	C306.002655,230.869080 305.994110,230.965363 306.287903,231.184875 
	C308.399323,230.557648 310.216919,229.710892 312.034546,228.864136 
	C312.034546,228.864136 312.019073,228.991333 312.375427,229.143005 
	C320.323090,229.227219 327.914429,229.159775 335.505737,229.092316 
z"/>
<path fill="#FDF7F7" opacity="1.000000" stroke="none" 
	d="
M285.585876,250.072510 
	C284.981659,254.083664 284.039520,258.244110 283.067566,262.536072 
	C300.532898,251.922287 317.779449,241.445984 335.003082,230.932083 
	C335.266571,230.771255 335.246429,230.145874 335.370850,229.393631 
	C339.658508,234.065353 344.548615,230.180420 349.596375,230.084808 
	C332.215149,240.331604 314.230316,250.184372 296.730896,260.834717 
	C290.787872,264.451721 286.069214,270.080505 280.478638,274.899658 
	C281.100922,272.386505 282.035706,269.763763 283.173096,266.572510 
	C278.856842,261.238922 283.150696,255.822815 285.585876,250.072510 
z"/>
<path fill="#FDF7F7" opacity="1.000000" stroke="none" 
	d="
M400.065308,262.601257 
	C399.196869,262.851532 398.277222,262.723267 398.097412,262.698181 
	C398.097412,279.664429 398.114502,296.728088 398.084320,313.791656 
	C398.077545,317.627106 397.905609,321.462280 397.989868,325.651123 
	C395.680878,328.613342 393.191711,331.221985 390.375366,333.981934 
	C395.530579,313.915314 391.081818,293.390778 391.931274,273.029633 
	C392.363953,262.657379 390.427582,252.901230 384.702881,244.092346 
	C387.035645,247.133560 389.922760,250.142059 390.657257,253.606873 
	C391.560303,257.866760 393.761444,259.697266 397.411621,260.835388 
	C398.333679,261.122864 399.149506,261.751038 400.065308,262.601257 
z"/>
<path fill="#FDF7F7" opacity="1.000000" stroke="none" 
	d="
M337.151489,352.580688 
	C335.510101,352.496063 333.798828,352.359680 332.423157,351.608582 
	C315.999542,342.641388 299.625763,333.582855 283.084015,324.462799 
	C283.539307,326.664215 284.032776,329.050323 284.233887,331.764587 
	C281.441742,328.070312 279.823334,324.035095 282.128113,319.199707 
	C282.623535,318.160309 281.413757,316.308197 280.956848,314.467010 
	C281.688354,314.418182 282.570374,314.581696 283.197906,315.071381 
	C287.984070,318.806000 292.349030,323.244080 297.543549,326.260254 
	C311.975098,334.639832 326.745178,342.436493 341.172302,350.799011 
	C339.721222,351.504211 338.479370,351.873779 337.151489,352.580688 
z"/>
<path fill="#FDF7F7" opacity="1.000000" stroke="none" 
	d="
M321.093811,420.484192 
	C321.729736,422.522522 322.708435,425.013794 322.766296,427.526276 
	C322.961670,436.012787 322.830261,444.506805 322.561188,453.441528 
	C322.298584,453.885101 321.898071,454.050690 321.898071,454.050690 
	C321.594818,452.723297 321.037964,451.397614 321.028870,450.068207 
	C320.962372,440.361511 321.005859,430.654053 321.093811,420.484192 
z"/>
<path fill="#FDF7F7" opacity="1.000000" stroke="none" 
	d="
M251.577301,404.064697 
	C251.684006,419.626160 251.371277,435.378387 251.240112,451.132080 
	C251.220001,453.547729 252.037186,455.970337 252.211426,458.765320 
	C251.299927,457.256866 250.095612,455.378723 250.075348,453.487885 
	C249.917786,438.779816 249.948395,424.069000 250.042404,409.359802 
	C250.053284,407.656097 250.807602,405.957092 251.577301,404.064697 
z"/>
<path fill="#FDF7F7" opacity="1.000000" stroke="none" 
	d="
M422.549194,405.100067 
	C422.957520,419.982971 422.939972,435.090179 423.055115,450.196350 
	C423.075012,452.803131 423.658203,455.405579 423.997742,458.421997 
	C423.338989,457.735046 422.080292,456.638428 422.075958,455.536926 
	C422.010040,438.799652 422.108337,422.061768 422.549194,405.100067 
z"/>
<path fill="#FDF7F7" opacity="1.000000" stroke="none" 
	d="
M339.401123,458.956085 
	C339.314941,445.260254 339.734802,431.389496 339.775818,417.517548 
	C339.783081,415.060974 338.211731,412.599701 337.666138,409.959900 
	C338.979126,412.179474 340.818176,414.560852 340.873993,416.983276 
	C341.167908,429.738007 341.043762,442.503357 340.957855,455.264282 
	C340.949951,456.439026 340.189270,457.608704 339.401123,458.956085 
z"/>
<path fill="#FDF7F7" opacity="1.000000" stroke="none" 
	d="
M409.461975,458.892395 
	C409.338867,457.041748 409.776276,455.002258 409.770233,452.964050 
	C409.724335,437.533691 409.591492,422.103638 409.763947,406.267914 
	C410.365326,407.196777 410.963226,408.529938 410.969513,409.865814 
	C411.037201,424.271454 411.055023,438.677765 410.958801,453.083069 
	C410.946259,454.959229 410.215271,456.830597 409.461975,458.892395 
z"/>
<path fill="#FDF7F7" opacity="1.000000" stroke="none" 
	d="
M230.843109,381.848480 
	C215.388428,382.288513 199.939209,382.265594 183.986145,382.181885 
	C184.007782,381.752930 184.534653,381.061493 185.058594,381.063721 
	C200.322098,381.128510 215.585327,381.262573 230.843109,381.848480 
z"/>
<path fill="#FDF7F7" opacity="1.000000" stroke="none" 
	d="
M185.957382,462.324646 
	C200.525650,461.912598 215.329590,461.891571 230.591507,461.992065 
	C230.700546,462.397156 230.350906,462.929443 230.002777,462.928467 
	C215.399460,462.887360 200.796265,462.798553 185.957382,462.324646 
z"/>
<path fill="#FDF7F7" opacity="1.000000" stroke="none" 
	d="
M470.153503,417.480896 
	C471.432007,417.110687 472.905853,417.110687 475.436188,417.110687 
	C475.436188,430.247375 475.436188,443.269287 475.202484,456.719757 
	C474.643188,455.644623 474.045776,454.142822 474.035370,452.636963 
	C473.956299,441.194946 473.992065,429.752167 473.992065,418.239655 
	C472.617889,418.093079 471.483398,417.972076 470.153503,417.480896 
z"/>
<path fill="#FDF7F7" opacity="1.000000" stroke="none" 
	d="
M276.592224,283.085327 
	C275.482544,291.261963 275.320007,299.519775 278.285278,307.823914 
	C274.205475,300.040253 271.943817,291.869904 276.592224,283.085327 
z"/>
<path fill="#F1C6C3" opacity="1.000000" stroke="none" 
	d="
M492.932129,400.394104 
	C492.719543,397.092102 492.459473,393.376007 492.239136,389.657562 
	C491.981628,385.312469 490.369843,382.020081 485.328674,380.964355 
	C489.371399,379.338318 492.511475,380.894623 492.962585,385.615753 
	C493.415771,390.358276 492.959747,395.187683 492.932129,400.394104 
z"/>
<path fill="#F1C6C3" opacity="1.000000" stroke="none" 
	d="
M492.859009,454.304718 
	C492.701233,442.613708 492.571716,430.471558 492.704651,418.265594 
	C492.940460,430.085724 492.913879,441.969635 492.859009,454.304718 
z"/>
<path fill="#FDF7F7" opacity="1.000000" stroke="none" 
	d="
M269.387665,455.955261 
	C268.937897,453.724274 268.803772,451.273834 268.836334,448.825592 
	C268.958984,439.600739 269.135834,430.376617 269.735352,421.040466 
	C270.045471,432.531403 269.912689,444.134094 269.387665,455.955261 
z"/>
<path fill="#F1C6C3" opacity="1.000000" stroke="none" 
	d="
M304.444794,456.925903 
	C304.165039,445.635864 304.289673,434.155304 304.715454,422.397736 
	C304.960785,433.658966 304.904968,445.197174 304.444794,456.925903 
z"/>
<path fill="#F1C6C3" opacity="1.000000" stroke="none" 
	d="
M286.127930,422.687317 
	C286.447357,427.106323 286.845520,431.972107 286.964539,436.844757 
	C287.105042,442.596466 287.004242,448.354126 286.951904,454.578064 
	C286.596039,453.539001 286.046326,452.032532 286.037506,450.522919 
	C285.984039,441.394745 286.054230,432.265808 286.127930,422.687317 
z"/>
<path fill="#FDF7F7" opacity="1.000000" stroke="none" 
	d="
M412.834839,289.931580 
	C411.113953,284.634613 409.419464,279.131470 407.876648,273.257812 
	C412.954895,277.548370 413.354492,283.508759 412.834839,289.931580 
z"/>
<path fill="#F1C6C3" opacity="1.000000" stroke="none" 
	d="
M186.666885,398.686462 
	C195.034515,398.539795 203.402039,398.385132 211.769882,398.251953 
	C213.980301,398.216766 214.915146,398.756165 212.410675,400.546631 
	C211.698318,400.036926 211.259811,399.054108 210.808365,399.048126 
	C203.083481,398.945984 195.357010,398.964630 187.145264,398.840942 
	C186.659653,398.725220 186.666885,398.686462 186.666885,398.686462 
z"/>
<path fill="#FDF7F7" opacity="1.000000" stroke="none" 
	d="
M441.261353,454.224121 
	C441.044769,444.483765 441.175964,434.432495 441.711304,424.209534 
	C441.946655,433.996277 441.777893,443.954773 441.261353,454.224121 
z"/>
<path fill="#FDF7F7" opacity="1.000000" stroke="none" 
	d="
M335.226868,228.764282 
	C327.914429,229.159775 320.323090,229.227219 312.311829,229.135406 
	C319.506409,225.771118 327.206177,226.205917 335.226868,228.764282 
z"/>
<path fill="#FDF7F7" opacity="1.000000" stroke="none" 
	d="
M329.975159,401.620178 
	C324.026215,401.674377 317.906189,401.381195 311.368286,400.993042 
	C317.306488,397.425995 323.575806,398.317383 329.975159,401.620178 
z"/>
<path fill="#FDF7F7" opacity="1.000000" stroke="none" 
	d="
M292.961487,400.619202 
	C287.267975,401.071594 281.391754,401.156311 275.211182,401.091431 
	C280.756805,397.933716 286.736389,398.280212 292.961487,400.619202 
z"/>
<path fill="#FDF7F7" opacity="1.000000" stroke="none" 
	d="
M343.045929,352.403442 
	C349.616852,352.676300 356.361603,353.296387 363.556030,354.036499 
	C356.936554,355.764526 349.977264,355.749664 343.045929,352.403442 
z"/>
<path fill="#FDF7F7" opacity="1.000000" stroke="none" 
	d="
M503.658630,415.940002 
	C506.818115,412.037689 507.579956,407.918732 504.709351,403.174316 
	C509.466095,407.629639 509.022491,413.214325 503.658630,415.940002 
z"/>
<path fill="#FDF7F7" opacity="1.000000" stroke="none" 
	d="
M179.577423,383.935913 
	C178.507080,388.188568 177.299011,392.481354 180.306961,396.795197 
	C176.021606,392.869843 175.765259,388.374481 179.577423,383.935913 
z"/>
<path fill="#FDF7F7" opacity="1.000000" stroke="none" 
	d="
M409.389099,312.962280 
	C410.448273,308.095520 411.857941,303.083160 413.540283,297.998352 
	C412.455139,302.889465 411.097382,307.853088 409.389099,312.962280 
z"/>
<path fill="#FDF7F7" opacity="1.000000" stroke="none" 
	d="
M385.946533,400.589783 
	C380.423553,400.984558 374.710754,401.018372 368.582062,401.011963 
	C373.903656,397.740540 379.806213,398.416962 385.946533,400.589783 
z"/>
<path fill="#FDF7F7" opacity="1.000000" stroke="none" 
	d="
M475.609497,384.038818 
	C475.650269,388.867401 475.374512,393.889648 474.952820,398.899597 
	C474.888428,399.664581 474.149109,400.372772 473.270569,401.060791 
	C473.210205,399.031586 473.697845,397.062042 473.971069,395.063202 
	C474.463531,391.460876 474.827606,387.841034 475.609497,384.038818 
z"/>
<path fill="#FDF7F7" opacity="1.000000" stroke="none" 
	d="
M238.387314,458.959229 
	C237.955978,455.645874 237.896988,452.169891 237.925262,448.285645 
	C241.604614,451.288391 240.348923,455.031067 238.387314,458.959229 
z"/>
<path fill="#FDF7F7" opacity="1.000000" stroke="none" 
	d="
M504.940552,402.565430 
	C503.540405,402.303253 501.463104,402.110870 500.501373,400.974457 
	C498.487213,398.594391 496.876648,398.803528 495.199585,401.214539 
	C498.566254,401.863434 501.667480,402.035492 504.940552,402.565430 
z"/>
<path fill="#FDF7F7" opacity="1.000000" stroke="none" 
	d="
M370.952454,232.581573 
	C368.882416,232.562286 366.647522,232.189850 364.213806,231.492538 
	C366.272522,231.521255 368.530090,231.874832 370.952454,232.581573 
z"/>
<path fill="#FDF7F7" opacity="1.000000" stroke="none" 
	d="
M337.424957,358.065552 
	C337.500793,356.830353 337.988861,355.541565 338.784119,354.098022 
	C339.723206,354.917908 340.355103,355.892548 340.987000,356.867188 
	C339.937073,357.248810 338.887146,357.630402 337.424957,358.065552 
z"/>
<path fill="#FDF7F7" opacity="1.000000" stroke="none" 
	d="
M311.647736,228.931976 
	C310.216919,229.710892 308.399323,230.557648 306.239868,231.179718 
	C307.685638,230.303284 309.473297,229.651550 311.647736,228.931976 
z"/>
<path fill="#FDF7F7" opacity="1.000000" stroke="none" 
	d="
M235.969238,445.625854 
	C234.687698,445.761536 233.288895,445.587433 231.664658,445.292603 
	C232.910156,445.219971 234.381058,445.268036 235.969238,445.625854 
z"/>
<path fill="#FDF7F7" opacity="1.000000" stroke="none" 
	d="
M478.617798,380.921814 
	C478.166931,382.018982 477.362579,383.177307 476.209167,384.153961 
	C476.661530,382.975830 477.462921,381.979401 478.617798,380.921814 
z"/>
<path fill="#FDF7F7" opacity="1.000000" stroke="none" 
	d="
M283.925110,332.370789 
	C284.774078,333.510803 285.678497,335.018677 286.256714,336.804077 
	C285.280518,335.633942 284.630524,334.186279 283.925110,332.370789 
z"/>
<path fill="#FDF7F7" opacity="1.000000" stroke="none" 
	d="
M288.928894,342.340515 
	C289.808044,342.884186 290.741028,343.757294 291.293152,344.847565 
	C290.269135,344.266449 289.625946,343.468201 288.928894,342.340515 
z"/>
<path fill="#FDF7F7" opacity="1.000000" stroke="none" 
	d="
M333.366119,359.767883 
	C334.165009,359.111511 335.304077,358.386169 336.772827,357.849304 
	C335.970428,358.591492 334.838379,359.145203 333.366119,359.767883 
z"/>
<path fill="#FDF7F7" opacity="1.000000" stroke="none" 
	d="
M186.320465,398.482910 
	C186.666885,398.686462 186.659653,398.725220 186.663452,398.748596 
	C185.178818,398.758392 183.690399,398.744781 182.044098,398.380310 
	C183.248825,398.112762 184.611435,398.196045 186.320465,398.482910 
z"/>
<path fill="#FDF7F7" opacity="1.000000" stroke="none" 
	d="
M377.969727,236.598358 
	C376.864807,236.469681 375.639465,236.036270 374.737762,235.240631 
	C375.990692,235.350143 376.919983,235.821899 377.969727,236.598358 
z"/>
<path fill="#FDF7F7" opacity="1.000000" stroke="none" 
	d="
M406.349609,317.995209 
	C406.481171,316.990631 406.928284,315.870697 407.745544,314.889587 
	C407.632172,315.978882 407.148651,316.929382 406.349609,317.995209 
z"/>
<path fill="#FDF7F7" opacity="1.000000" stroke="none" 
	d="
M298.653687,234.935699 
	C298.433136,235.592911 297.898834,236.298035 297.065613,236.731812 
	C297.291046,235.968170 297.815491,235.475906 298.653687,234.935699 
z"/>
<path fill="#F1C6C3" opacity="1.000000" stroke="none" 
	d="
M321.931824,454.432922 
	C321.898071,454.050690 322.298584,453.885101 322.514526,453.903046 
	C323.004547,455.089630 323.278656,456.258240 323.242310,457.757233 
	C322.609741,456.996796 322.287689,455.905975 321.931824,454.432922 
z"/>
<path fill="#FDF7F7" opacity="1.000000" stroke="none" 
	d="
M290.137329,242.786072 
	C290.182953,243.624680 289.913574,244.468903 289.266479,245.139160 
	C289.199982,244.240707 289.511169,243.516190 290.137329,242.786072 
z"/>
<path fill="#F1C6C3" opacity="1.000000" stroke="none" 
	d="
M440.442139,457.940399 
	C440.115356,457.026215 440.172791,455.944763 440.607361,454.653259 
	C440.931763,455.553162 440.879059,456.663177 440.442139,457.940399 
z"/>
<path fill="#FDF7F7" opacity="1.000000" stroke="none" 
	d="
M481.792175,380.492493 
	C481.146759,380.998047 480.346252,381.216766 479.205200,381.196533 
	C479.788818,380.706909 480.712982,380.456329 481.792175,380.492493 
z"/>
<path fill="#FDF7F7" opacity="1.000000" stroke="none" 
	d="
M423.598236,403.037476 
	C423.873199,403.646942 423.849182,404.378479 423.324127,405.063568 
	C422.981812,404.397919 423.140533,403.778778 423.598236,403.037476 
z"/>
<path fill="#FDF7F7" opacity="1.000000" stroke="none" 
	d="
M288.628052,245.028778 
	C288.855286,245.588379 288.776245,246.262436 288.280762,246.977814 
	C288.016785,246.393845 288.169281,245.768555 288.628052,245.028778 
z"/>
<path fill="#FDF7F7" opacity="1.000000" stroke="none" 
	d="
M183.195465,382.050964 
	C182.903320,382.566528 182.216064,383.049408 181.219376,383.234863 
	C181.540085,382.631073 182.170212,382.324707 183.195465,382.050964 
z"/>
<path fill="#FDF7F7" opacity="1.000000" stroke="none" 
	d="
M410.088318,405.700348 
	C409.614197,405.529602 409.055725,405.036865 408.775085,404.207153 
	C409.369965,404.372894 409.686981,404.875641 410.088318,405.700348 
z"/>
<path fill="#FDF7F7" opacity="1.000000" stroke="none" 
	d="
M374.972046,234.609558 
	C374.391357,234.860687 373.684082,234.809464 372.970764,234.290497 
	C373.591644,233.984253 374.218536,234.145721 374.972046,234.609558 
z"/>
<path fill="#FDF7F7" opacity="1.000000" stroke="none" 
	d="
M270.363220,420.987457 
	C270.101349,420.486694 270.161926,419.845947 270.529663,419.004272 
	C270.786438,419.484741 270.736084,420.166107 270.363220,420.987457 
z"/>
<path fill="#FDF7F7" opacity="1.000000" stroke="none" 
	d="
M180.047821,397.393158 
	C180.598114,397.136932 181.259399,397.184235 181.970322,397.684570 
	C181.399582,397.990631 180.779190,397.843689 180.047821,397.393158 
z"/>
<path fill="#FDF7F7" opacity="1.000000" stroke="none" 
	d="
M331.970764,402.607056 
	C331.394714,402.859192 330.692413,402.808868 329.976471,402.290741 
	C330.590057,401.983490 331.217255,402.144043 331.970764,402.607056 
z"/>
<path fill="#FDF7F7" opacity="1.000000" stroke="none" 
	d="
M383.983002,242.624786 
	C383.497864,242.867584 382.908569,242.825974 382.237335,242.389618 
	C382.729889,242.110031 383.304352,242.225189 383.983002,242.624786 
z"/>
<path fill="#FDF7F7" opacity="1.000000" stroke="none" 
	d="
M291.654877,241.001373 
	C291.785187,241.582504 291.646790,242.242523 291.097290,242.698334 
	C290.919525,242.022827 291.152832,241.551544 291.654877,241.001373 
z"/>
<path fill="#FDF7F7" opacity="1.000000" stroke="none" 
	d="
M373.008820,233.653824 
	C372.375214,233.869629 371.611786,233.779724 370.918945,233.260864 
	C371.619324,233.003967 372.249176,233.176041 373.008820,233.653824 
z"/>
<path fill="#FDF7F7" opacity="1.000000" stroke="none" 
	d="
M301.695099,232.922653 
	C301.491730,233.456268 300.968689,234.049088 300.185638,234.281784 
	C300.408875,233.608398 300.892151,233.295135 301.695099,232.922653 
z"/>
<path fill="#FDF7F7" opacity="1.000000" stroke="none" 
	d="
M295.020630,401.691040 
	C294.416382,401.873260 293.688568,401.737518 292.963440,401.216095 
	C293.609772,401.011292 294.253418,401.192200 295.020630,401.691040 
z"/>
<path fill="#FDF7F7" opacity="1.000000" stroke="none" 
	d="
M387.982117,401.618805 
	C387.381653,401.863373 386.654175,401.805267 385.951111,401.285950 
	C386.602051,400.988525 387.228577,401.152313 387.982117,401.618805 
z"/>
<path fill="#FDF7F7" opacity="1.000000" stroke="none" 
	d="
M296.216980,236.668579 
	C296.161682,237.332535 295.824829,237.983810 295.204956,238.279694 
	C295.259766,237.501480 295.597626,237.078690 296.216980,236.668579 
z"/>
<path fill="#FDF7F7" opacity="1.000000" stroke="none" 
	d="
M426.700867,401.084595 
	C426.399719,401.686462 425.788330,402.206879 425.059204,402.304077 
	C425.424500,401.588287 425.907593,401.295715 426.700867,401.084595 
z"/>
<path fill="#FDF7F7" opacity="1.000000" stroke="none" 
	d="
M303.690063,231.924835 
	C303.534851,232.365814 303.053864,232.864578 302.234131,233.160736 
	C302.385071,232.632965 302.874664,232.307800 303.690063,231.924835 
z"/>
<path fill="#FDF7F7" opacity="1.000000" stroke="none" 
	d="
M296.892548,403.069153 
	C296.230957,403.149017 295.609955,402.842255 294.974060,402.187134 
	C295.617157,402.120026 296.275146,402.401276 296.892548,403.069153 
z"/>
<path fill="#FDF7F7" opacity="1.000000" stroke="none" 
	d="
M474.905701,457.308838 
	C475.351532,457.457764 475.871613,457.933502 476.179321,458.776428 
	C475.637939,458.640991 475.308960,458.138306 474.905701,457.308838 
z"/>
<path fill="#FDF7F7" opacity="1.000000" stroke="none" 
	d="
M408.076904,272.697968 
	C407.558990,272.501617 406.982056,271.984192 406.738892,271.193604 
	C407.387726,271.405914 407.702789,271.891418 408.076904,272.697968 
z"/>
<path fill="#FDF7F7" opacity="1.000000" stroke="none" 
	d="
M277.906616,308.319550 
	C278.405273,308.477356 278.977295,308.956604 279.246521,309.781921 
	C278.622498,309.632294 278.301208,309.136627 277.906616,308.319550 
z"/>
<path fill="#FDF7F7" opacity="1.000000" stroke="none" 
	d="
M278.904236,310.310181 
	C279.406586,310.479126 279.983643,310.969910 280.250366,311.792725 
	C279.619690,311.627197 279.299316,311.129608 278.904236,310.310181 
z"/>
<path fill="#FDF7F7" opacity="1.000000" stroke="none" 
	d="
M279.900146,312.289246 
	C280.484161,312.533569 281.145813,313.094025 281.351837,313.868683 
	C280.590088,313.590393 280.283936,313.097900 279.900146,312.289246 
z"/>
<path fill="#FDF7F7" opacity="1.000000" stroke="none" 
	d="
M408.361603,314.981323 
	C408.141266,314.399536 408.227875,313.702667 408.724670,312.997986 
	C408.979401,313.615540 408.823975,314.240845 408.361603,314.981323 
z"/>
<path fill="#FDF7F7" opacity="1.000000" stroke="none" 
	d="
M305.675537,230.926208 
	C305.542236,231.319946 305.081818,231.770813 304.253021,232.100189 
	C304.372589,231.646912 304.860504,231.315125 305.675537,230.926208 
z"/>
<path fill="#FDF7F7" opacity="1.000000" stroke="none" 
	d="
M405.061707,268.718384 
	C404.569366,268.511139 404.013794,267.980621 403.764099,267.184021 
	C404.379486,267.410339 404.688965,267.902710 405.061707,268.718384 
z"/>
<path fill="#F1C6C3" opacity="1.000000" stroke="none" 
	d="
M436.307922,462.060974 
	C436.503204,461.546143 437.029114,461.008575 437.817322,460.785339 
	C437.599274,461.412537 437.118927,461.725372 436.307922,462.060974 
z"/>
<path fill="#FDF7F7" opacity="1.000000" stroke="none" 
	d="
M403.078400,265.699036 
	C402.490234,265.450623 401.843048,264.885712 401.648254,264.134338 
	C402.406921,264.426117 402.713135,264.904327 403.078400,265.699036 
z"/>
<path fill="#FDF7F7" opacity="1.000000" stroke="none" 
	d="
M389.335510,336.016846 
	C389.128662,335.383240 389.229828,334.619415 389.749451,333.921875 
	C389.993103,334.620941 389.818298,335.253784 389.335510,336.016846 
z"/>
<path fill="#FDF7F7" opacity="1.000000" stroke="none" 
	d="
M388.394196,337.968567 
	C388.142090,337.399658 388.192963,336.704712 388.710754,335.983948 
	C389.017487,336.586273 388.857330,337.214417 388.394196,337.968567 
z"/>
<path fill="#FDF7F7" opacity="1.000000" stroke="none" 
	d="
M286.940094,338.295410 
	C287.307465,338.452026 287.742401,338.938232 288.080292,339.770142 
	C287.658051,339.618866 287.332855,339.121948 286.940094,338.295410 
z"/>
<path fill="#FDF7F7" opacity="1.000000" stroke="none" 
	d="
M387.170502,339.161865 
	C387.208008,338.658844 387.502594,338.017212 387.932831,337.741577 
	C387.854858,338.412811 387.641235,338.718018 387.170502,339.161865 
z"/>
<path fill="#FDF7F7" opacity="1.000000" stroke="none" 
	d="
M287.925903,340.302856 
	C288.385223,340.470764 288.903625,340.963562 289.185852,341.777344 
	C288.628082,341.608154 288.306519,341.117981 287.925903,340.302856 
z"/>
<path fill="#FDF7F7" opacity="1.000000" stroke="none" 
	d="
M235.485764,460.985199 
	C235.624954,460.572723 236.071075,460.151978 236.811615,459.883423 
	C236.668274,460.349396 236.230484,460.663147 235.485764,460.985199 
z"/>
<path fill="#FDF7F7" opacity="1.000000" stroke="none" 
	d="
M407.458038,460.007141 
	C407.683319,459.448914 408.209534,458.892853 408.907166,458.721222 
	C408.638702,459.406830 408.198822,459.708069 407.458038,460.007141 
z"/>
<path fill="#FDF7F7" opacity="1.000000" stroke="none" 
	d="
M286.622803,248.032715 
	C286.874939,248.640366 286.824188,249.359909 286.320526,250.037949 
	C286.018372,249.379166 286.169128,248.761887 286.622803,248.032715 
z"/>
<path fill="#FDF7F7" opacity="1.000000" stroke="none" 
	d="
M302.005707,354.341003 
	C302.556366,354.141418 303.222229,354.250763 303.947937,354.725159 
	C303.378845,354.943451 302.749878,354.796692 302.005707,354.341003 
z"/>
<path fill="#FDF7F7" opacity="1.000000" stroke="none" 
	d="
M338.968048,353.623169 
	C338.362885,353.874023 337.645660,353.821686 336.965515,353.318207 
	C337.620361,353.018036 338.238190,353.169006 338.968048,353.623169 
z"/>
<path fill="#FDF7F7" opacity="1.000000" stroke="none" 
	d="
M300.033508,353.377899 
	C300.591370,353.143188 301.263184,353.213776 301.977112,353.710083 
	C301.395294,353.984924 300.771393,353.834045 300.033508,353.377899 
z"/>
<path fill="#F1C6C3" opacity="1.000000" stroke="none" 
	d="
M439.416840,459.985046 
	C439.158386,459.391418 439.214203,458.703949 439.702026,458.010742 
	C439.999695,458.633728 439.865417,459.262482 439.416840,459.985046 
z"/>
<path fill="#FDF7F7" opacity="1.000000" stroke="none" 
	d="
M297.042419,351.388153 
	C297.592377,351.140869 298.254608,351.197968 298.968933,351.696045 
	C298.398895,351.988861 297.776794,351.840698 297.042419,351.388153 
z"/>
<path fill="#FDF7F7" opacity="1.000000" stroke="none" 
	d="
M401.943329,263.597290 
	C401.396118,263.871338 400.739990,263.843262 400.031982,263.339142 
	C400.598206,263.007141 401.216309,263.151123 401.943329,263.597290 
z"/>
<path fill="#FDF7F7" opacity="1.000000" stroke="none" 
	d="
M340.993591,351.349762 
	C341.624939,351.131073 342.385651,351.217773 343.078918,351.736572 
	C342.381958,351.997528 341.752472,351.826355 340.993591,351.349762 
z"/>
<path fill="#F1C6C3" opacity="1.000000" stroke="none" 
	d="
M435.489624,462.641998 
	C435.627686,462.594116 435.947418,462.486298 436.088684,462.140137 
	C435.957458,462.172729 435.877838,462.399475 435.489624,462.641998 
z"/>
<path fill="#FDF7F7" opacity="1.000000" stroke="none" 
	d="
M475.943481,459.286285 
	C476.261536,459.142883 476.685150,459.281311 477.073242,459.823608 
	C476.708191,460.007629 476.378601,459.787872 475.943481,459.286285 
z"/>
<path fill="#F1C6C3" opacity="1.000000" stroke="none" 
	d="
M322.985229,458.280396 
	C323.217346,458.143738 323.544128,458.240692 323.887085,458.690247 
	C323.628784,458.866577 323.354340,458.690277 322.985229,458.280396 
z"/>
<path fill="#FDF7F7" opacity="1.000000" stroke="none" 
	d="
M299.694092,233.970825 
	C299.877106,234.338196 299.795135,234.786377 299.296326,235.106049 
	C299.062683,234.668884 299.245911,234.360260 299.694092,233.970825 
z"/>
<path fill="#FDF7F7" opacity="1.000000" stroke="none" 
	d="
M237.280090,460.041992 
	C237.139404,459.709656 237.272064,459.294403 237.764511,458.944183 
	C237.934006,459.325836 237.743729,459.642456 237.280090,460.041992 
z"/>
<path fill="#FDF7F7" opacity="1.000000" stroke="none" 
	d="
M251.948074,459.297058 
	C252.262909,459.143158 252.683487,459.269165 253.071838,459.811584 
	C252.710999,460.010956 252.382401,459.793945 251.948074,459.297058 
z"/>
<path fill="#F1C6C3" opacity="1.000000" stroke="none" 
	d="
M438.327423,461.058899 
	C438.146118,460.638855 438.237457,460.160339 438.721191,459.872437 
	C438.942413,460.375519 438.771240,460.687988 438.327423,461.058899 
z"/>
<path fill="#FDF7F7" opacity="1.000000" stroke="none" 
	d="
M238.041382,447.718842 
	C237.724548,447.857483 237.324142,447.721802 236.962952,447.230194 
	C237.320724,447.064362 237.639252,447.254456 238.041382,447.718842 
z"/>
<path fill="#FDF7F7" opacity="1.000000" stroke="none" 
	d="
M237.044601,446.725830 
	C236.677490,446.865540 236.229416,446.733215 235.903046,446.240784 
	C236.337723,446.071686 236.650681,446.262756 237.044601,446.725830 
z"/>
<path fill="#FDF7F7" opacity="1.000000" stroke="none" 
	d="
M287.727417,246.953644 
	C287.868164,247.387589 287.741669,247.900833 287.255402,248.183014 
	C287.083832,247.645599 287.271973,247.339264 287.727417,246.953644 
z"/>
<path fill="#FDF7F7" opacity="1.000000" stroke="none" 
	d="
M407.027466,270.692719 
	C406.707825,270.868042 406.305420,270.775513 405.953247,270.278870 
	C406.317230,270.058136 406.630951,270.241486 407.027466,270.692719 
z"/>
<path fill="#FDF7F7" opacity="1.000000" stroke="none" 
	d="
M406.039703,269.718628 
	C405.759338,269.851135 405.394348,269.708221 405.008606,269.225830 
	C405.310272,269.072021 405.632690,269.257599 406.039703,269.718628 
z"/>
<path fill="#FDF7F7" opacity="1.000000" stroke="none" 
	d="
M405.314148,319.027649 
	C405.176331,318.683075 405.302429,318.255890 405.774811,317.923401 
	C405.940063,318.327087 405.759033,318.636047 405.314148,319.027649 
z"/>
<path fill="#FDF7F7" opacity="1.000000" stroke="none" 
	d="
M404.034882,266.702515 
	C403.686493,266.867584 403.255646,266.764587 402.920441,266.269287 
	C403.328186,266.062805 403.640320,266.248596 404.034882,266.702515 
z"/>
<path fill="#FDF7F7" opacity="1.000000" stroke="none" 
	d="
M285.973389,337.306824 
	C286.264984,337.136292 286.639862,337.234711 287.010559,337.723755 
	C286.689819,337.934845 286.373230,337.755280 285.973389,337.306824 
z"/>
<path fill="#FDF7F7" opacity="1.000000" stroke="none" 
	d="
M290.969452,345.305237 
	C291.362793,345.120178 291.836151,345.198639 292.138794,345.696899 
	C291.661865,345.934021 291.355682,345.751373 290.969452,345.305237 
z"/>
<path fill="#FDF7F7" opacity="1.000000" stroke="none" 
	d="
M291.965851,346.299438 
	C292.347321,346.126007 292.809814,346.217957 293.121826,346.714111 
	C292.663177,346.933777 292.355042,346.749298 291.965851,346.299438 
z"/>
<path fill="#FDF7F7" opacity="1.000000" stroke="none" 
	d="
M292.964722,347.297302 
	C293.330078,347.129639 293.777313,347.228821 294.100800,347.724365 
	C293.666931,347.935211 293.356781,347.749695 292.964722,347.297302 
z"/>
<path fill="#FDF7F7" opacity="1.000000" stroke="none" 
	d="
M293.961792,348.291687 
	C294.327972,348.131805 294.776306,348.239990 295.100525,348.734283 
	C294.665588,348.933502 294.354736,348.746613 293.961792,348.291687 
z"/>
<path fill="#FDF7F7" opacity="1.000000" stroke="none" 
	d="
M294.960083,349.289001 
	C295.358582,349.129242 295.838043,349.235901 296.140930,349.728394 
	C295.656616,349.927948 295.348846,349.741669 294.960083,349.289001 
z"/>
<path fill="#FDF7F7" opacity="1.000000" stroke="none" 
	d="
M295.963043,350.295441 
	C296.383850,350.124847 296.884644,350.218018 297.171753,350.710815 
	C296.653015,350.926727 296.348053,350.742950 295.963043,350.295441 
z"/>
<path fill="#FDF7F7" opacity="1.000000" stroke="none" 
	d="
M298.955200,352.276245 
	C299.360046,352.131470 299.845276,352.255280 300.145935,352.745300 
	C299.652771,352.922607 299.344147,352.733704 298.955200,352.276245 
z"/>
<path fill="#FDF7F7" opacity="1.000000" stroke="none" 
	d="
M303.991821,355.133972 
	C304.107819,355.089569 303.908600,355.051788 303.870056,355.048706 
	C303.831543,355.045624 303.875854,355.178406 303.991821,355.133972 
z"/>
<path fill="#FDF7F7" opacity="1.000000" stroke="none" 
	d="
M379.063904,237.717697 
	C378.589203,237.880203 378.018280,237.779663 377.749878,237.270157 
	C378.357544,237.059006 378.662598,237.256836 379.063904,237.717697 
z"/>
<path fill="#FDF7F7" opacity="1.000000" stroke="none" 
	d="
M385.043945,243.688065 
	C384.666565,243.889084 384.192200,243.825058 383.863922,243.298859 
	C384.322327,243.032135 384.634644,243.227570 385.043945,243.688065 
z"/>
<path fill="#FDF7F7" opacity="1.000000" stroke="none" 
	d="
M180.703217,382.965271 
	C180.868042,383.315186 180.764847,383.747589 180.269516,384.081665 
	C180.063324,383.671448 180.249268,383.359589 180.703217,382.965271 
z"/>
<path fill="#FDF7F7" opacity="1.000000" stroke="none" 
	d="
M292.699097,239.966644 
	C292.879303,240.385742 292.796753,240.884537 292.301331,241.171448 
	C292.071136,240.655151 292.253754,240.350754 292.699097,239.966644 
z"/>
<path fill="#FDF7F7" opacity="1.000000" stroke="none" 
	d="
M380.891602,239.737701 
	C380.427551,239.813934 380.020660,239.617630 379.831909,239.145538 
	C380.349670,239.068207 380.649200,239.266693 380.891602,239.737701 
z"/>
<path fill="#FDF7F7" opacity="1.000000" stroke="none" 
	d="
M293.703827,238.963776 
	C293.875488,239.378372 293.783234,239.873138 293.289551,240.164032 
	C293.072083,239.654755 293.255981,239.349365 293.703827,238.963776 
z"/>
<path fill="#FDF7F7" opacity="1.000000" stroke="none" 
	d="
M388.892303,403.118103 
	C388.395477,403.135773 387.939087,402.815643 387.772705,402.184174 
	C388.352692,402.175354 388.642700,402.477875 388.892303,403.118103 
z"/>
<path fill="#FDF7F7" opacity="1.000000" stroke="none" 
	d="
M424.694397,401.949036 
	C424.893524,402.419189 424.833313,402.984375 424.313751,403.251434 
	C424.047943,402.650238 424.241486,402.347137 424.694397,401.949036 
z"/>
<path fill="#FDF7F7" opacity="1.000000" stroke="none" 
	d="
M252.768921,402.891266 
	C252.902527,403.302795 252.762161,403.831329 252.235291,404.165009 
	C252.064163,403.649506 252.279556,403.328918 252.768921,402.891266 
z"/>
<path fill="#FDF7F7" opacity="1.000000" stroke="none" 
	d="
M333.070923,403.736481 
	C332.612183,403.877686 332.057587,403.751068 331.776520,403.242584 
	C332.358398,403.063354 332.666748,403.265991 333.070923,403.736481 
z"/>
<path fill="#FDF7F7" opacity="1.000000" stroke="none" 
	d="
M409.007080,403.650940 
	C408.747467,403.927612 408.368896,403.911621 407.847260,403.528442 
	C408.098816,403.226929 408.493500,403.292572 409.007080,403.650940 
z"/>
<path fill="#FDF7F7" opacity="1.000000" stroke="none" 
	d="
M380.065796,238.725250 
	C379.630157,238.880341 379.097382,238.767761 378.801392,238.254272 
	C379.348358,238.054749 379.658508,238.256165 380.065796,238.725250 
z"/>
<path fill="#FDF7F7" opacity="1.000000" stroke="none" 
	d="
M333.892090,405.035095 
	C333.432037,405.073242 333.017212,404.785370 332.822876,404.180969 
	C333.341400,404.145996 333.639343,404.427521 333.892090,405.035095 
z"/>
<path fill="#FDF7F7" opacity="1.000000" stroke="none" 
	d="
M294.695862,237.968842 
	C294.878937,238.361694 294.798370,238.834763 294.300568,239.137955 
	C294.066315,238.661743 294.249268,238.355408 294.695862,237.968842 
z"/>
<path fill="#FDF7F7" opacity="1.000000" stroke="none" 
	d="
M371.041260,293.013306 
	C372.328156,285.545074 373.579010,278.510376 374.800720,271.470581 
	C375.862122,265.354218 376.038422,265.233276 383.046936,266.727325 
	C381.251923,277.473633 379.460114,288.245728 377.648193,299.014465 
	C377.234802,301.471283 376.757874,303.917511 376.300171,306.366730 
	C374.711334,314.869202 374.714203,314.913513 366.039886,315.791565 
	C353.135773,317.097778 340.204468,318.166290 327.329224,319.707733 
	C323.765259,320.134430 323.063934,318.235657 322.183807,315.819824 
	C317.466553,302.871735 312.629944,289.965607 308.080719,276.958862 
	C306.914154,273.623474 305.531189,271.788635 301.734192,272.806274 
	C296.421997,274.229950 295.080566,271.056915 294.763977,266.105621 
	C299.604950,265.603027 304.342255,264.832794 309.083466,264.807892 
	C310.322357,264.801331 312.157837,266.891937 312.727112,268.395111 
	C317.605194,281.276154 322.429993,294.184021 326.868378,307.220856 
	C328.230042,311.220612 330.084656,312.093933 334.099182,311.555481 
	C344.146057,310.207916 354.255676,309.293640 364.358643,308.419586 
	C367.496033,308.148163 369.099701,307.212067 369.284760,303.761993 
	C369.470367,300.302277 370.392975,296.882080 371.041260,293.013306 
z"/>
<path fill="#FBB410" opacity="1.000000" stroke="none" 
	d="
M342.360992,306.853760 
	C339.335815,307.281219 336.698700,307.745972 334.044342,307.888092 
	C329.674011,308.122070 328.754730,306.727692 331.059052,303.001526 
	C334.737518,297.053253 338.691772,291.275665 342.523010,285.421692 
	C343.800079,283.470398 345.494812,281.661072 346.251984,279.522491 
	C350.740601,266.844788 361.280823,267.741547 373.211975,267.780640 
	C363.455566,281.995758 353.262787,294.493042 342.360992,306.853760 
z"/>
<path fill="#FBB410" opacity="1.000000" stroke="none" 
	d="
M319.583221,273.795776 
	C321.628418,272.875580 323.704590,272.065735 325.841949,271.842682 
	C332.592987,271.138184 339.366974,270.653442 347.638428,269.956818 
	C340.247040,278.965515 333.698273,286.947266 326.265594,296.006317 
	C323.827942,287.971497 321.735077,281.073090 319.583221,273.795776 
z"/>
<path fill="#FBB410" opacity="1.000000" stroke="none" 
	d="
M359.057404,304.961182 
	C355.511414,305.290222 352.405792,305.601044 347.677856,306.074249 
	C355.136444,299.245544 361.491760,293.426910 368.927399,286.619202 
	C368.028412,292.725708 367.910797,297.573547 366.367126,301.914246 
	C365.791321,303.533356 361.885284,303.968170 359.057404,304.961182 
z"/>
<path fill="#FDF7F7" opacity="1.000000" stroke="none" 
	d="
M339.697388,324.193726 
	C340.670441,327.267395 341.595612,330.171936 341.679260,333.100555 
	C341.705719,334.027618 339.095459,336.065491 338.362000,335.792755 
	C335.715546,334.808685 333.161072,333.282074 331.017181,331.441589 
	C330.454834,330.958801 331.002777,327.860321 331.906555,327.254486 
	C334.108948,325.778076 336.818573,325.058380 339.697388,324.193726 
z"/>
<path fill="#FDF7F7" opacity="1.000000" stroke="none" 
	d="
M368.941895,321.596924 
	C369.516571,323.136627 370.315552,324.487274 370.061890,325.597443 
	C369.530396,327.923676 368.444733,330.123260 367.586639,332.374878 
	C364.839264,331.201569 361.423584,330.671204 359.516937,328.689178 
	C357.231201,326.313110 359.065765,323.627441 361.909698,322.569275 
	C364.033203,321.779175 366.419891,321.696594 368.941895,321.596924 
z"/>
<path fill="#000000" opacity="1.000000" stroke="none" 
	d="
M372.365601,443.622681 
	C367.510162,436.720184 367.236664,429.888123 370.757416,422.705200 
	C373.044830,418.038452 376.759216,416.329193 381.663330,417.081146 
	C385.888916,417.729004 390.193207,422.820526 390.392914,427.175842 
	C390.531097,430.188965 390.670929,433.214691 390.549469,436.224274 
	C390.323303,441.828400 386.005737,443.888275 381.795349,446.075928 
	C378.031860,448.031372 375.265167,446.306885 372.365601,443.622681 
z"/>
</svg>